<svg xmlns="http://www.w3.org/2000/svg" version="1.1" xmlns:xlink="http://www.w3.org/1999/xlink" xmlns:svgjs="http://svgjs.dev/svgjs" viewBox="0 0 800 800" opacity="0.71"><defs><linearGradient x1="50%" y1="0%" x2="50%" y2="100%" id="wwwhirl-grad"><stop stop-color="#064032ff" stop-opacity="1" offset="45%"></stop><stop stop-color="#267259ff" stop-opacity="1" offset="100%"></stop></linearGradient></defs><g stroke-width="2" stroke="url(#wwwhirl-grad)" fill="none" stroke-linecap="round"><path d="M-139.9999989700317 407.4327994716057C-117.49999828338616 400.0077992450126 -76.99999704742419 367.4615482517799 -31.999995674133146 371.79279838395917C13.000005699157867 376.12404851613843 31.000006248474307 432.244675228804 76.00000762176535 428.22280010606613C121.00000899505648 424.20092498332826 139.00000954437286 351.2502977570518 184.00001091766393 352.48779779481725C229.000012290955 353.7252978325828 247.0000128402715 431.68780021180953 292.0000142135625 434.16280028734053C337.0000155868536 436.63780036287153 355.00001613616996 365.914673204573 400.00001750946103 364.3677981573661C445.000018882752 362.82092311015924 463.0000194320685 423.3346749568924 508.00002080535955 426.73780006074753C553.0000221786507 430.14092516460266 571.000022727967 377.91842357089837 616.0000241012582 380.70279865587077C661.0000254745493 383.48717374084316 679.0000260238656 436.39030035531846 724.0000273971566 440.102800468615C769.0000287704478 443.81530058191146 787.000029319764 396.97592415248715 832.0000306930551 398.522799199694C877.0000320663464 400.0696742469009 917.5000333023083 437.3184253836426 940.0000339889539 447.527800695208 " transform="rotate(648, 400, 400)"></path><path d="M-129.99999898910517 407.29514945618547C-107.91666498184198 400.00764923378864 -68.16666376876819 368.06410659228237 -23.99999575424181 372.31514838868054C20.16667226028457 376.5661901850787 37.83333946609517 431.64754603269495 82.00000748062155 427.7001500788967C126.16667549514801 423.75275412509836 143.83334270095855 352.15306444004926 188.00001071548496 353.3676478104487C232.16667873001137 354.5822311808482 249.83334593582197 431.1009835160152 294.00001395034843 433.5301502568142C338.1666819648748 435.9593169976131 355.8333491706853 366.54587737928307 400.00001718521173 365.0276481662837C444.16668519973814 363.50941895328435 461.8333524055487 422.90254576581873 506.0000204200751 426.2426500344173C550.1666884346016 429.58275430301586 567.833355640412 378.32733607215795 612.0000236549386 381.0601486555568C656.1666916694651 383.7929612389556 673.8333588752755 435.7164003235332 718.0000268898019 439.3601504347316C762.1666949043284 443.0039005459301 779.8333621101389 397.0319199763099 824.0000301246655 398.55014918930925C868.1666981391918 400.0683784023086 907.9166993522656 436.62733785133287 930.0000333595287 446.6476506571285 " transform="rotate(636, 400, 400)"></path><path d="M-119.99999900817868 407.15749562606806C-98.33333168029779 400.00749540786734 -59.33333049011219 368.66666111808763 -15.999995834350443 372.8374945787047C27.333338821411303 377.0083280393218 44.666672683716 431.0504130218887 88.00000733947775 427.17749623702997C131.3333419952395 423.30457945217125 148.66667585754425 353.0558273083495 192.000010513306 354.2474940113829C235.3333451690678 355.4391607144164 252.6666790313725 430.51416300552364 296.0000136871343 432.8974964115905C339.333348342896 435.28082981765743 356.6666822052007 367.17707773929584 400.00001686096243 365.68749436050405C443.3333515167243 364.1979109817122 460.666685379029 422.47041276004785 504.0000200347906 425.7474961933898C547.3333546905526 429.0245796267318 564.6666885528571 378.7362447587203 608.000023208619 381.41749484054554C651.3333578643809 384.0987449223708 668.6666917266854 435.0424964770507 712.0000263824472 438.61749658615105C755.3333610382091 442.1924966952514 772.6666949005136 397.08791198543537 816.0000295562754 398.5774953642272C859.3333642120374 400.067078743019 898.3333654022231 435.9362465043258 920.0000327301036 445.76749680435177 " transform="rotate(624, 400, 400)"></path><path d="M-109.99999902725216 407.0198532400424C-88.7499983787536 400.0073530260379 -50.49999721145619 369.2692270879847 -7.9999959144590775 373.35985221282067C34.500005382538006 377.45047733765665 51.500005901336834 430.45329145517417 94.00000719833395 426.65485383925505C136.5000084953311 422.85641622333594 153.50000901412994 353.9586016207415 196.00001031112708 355.1273516564089C238.50001160812417 356.2961016920763 255.50001212692308 429.9273539391238 298.0000134239201 432.2648540104587C340.5000147209173 434.6023540817935 357.50001523971605 367.8082895434004 400.00001653671325 366.3473519988162C442.5000178337102 364.8864144542319 459.5000183525092 422.0382911983687 502.00001964950627 425.25235379645414C544.5000209465035 428.4664163945396 561.5000214653021 379.1451648893744 604.0000227622994 381.7748524696261C646.5000240592965 384.4045400498778 663.5000245780952 434.36860407466 706.0000258750925 437.8748541816623C748.5000271720896 441.3811042886646 765.5000276908884 397.1439154386527 808.0000289878855 398.604852983237C850.5000302848828 400.06579052782126 888.7500314521801 435.2451666014106 910.0000321006787 444.8873543956668 " transform="rotate(612, 400, 400)"></path><path d="M-99.99999904632564 406.88220322462223C-79.16666507720942 400.00720301481385 -41.66666393280019 369.8717854284872 0.000004005432288067823 373.8822022175421C41.66667194366468 377.892619006597 58.333339118957696 429.8561622590651 100.00000705719015 426.1322038120856C141.66667499542268 422.4082453651061 158.33334217071564 354.86136830373897 200.00001010894812 356.00720167204037C241.66667804718054 357.15303504034176 258.33334522247355 429.3405372433295 300.0000131607061 431.6322039799323C341.6666810989385 433.9238707165351 358.3333482742314 368.4394937181105 400.00001621246383 367.0072020077337C441.66668415069637 365.574910297357 458.33335132598927 421.6061620072951 500.0000192642218 424.75720377012397C541.6666872024543 427.9082455329528 558.3333543777472 379.554077390634 600.0000223159798 382.1322024693121C641.6666902542123 384.71032754799023 658.3333574295051 433.69470404287483 700.0000253677376 437.13220414777896C741.6666933059703 440.56970425268315 758.3333604812631 397.19991126247544 800.0000284194957 398.63220297285216C841.6666963577281 400.06449468322893 879.1666975021374 434.55407906910085 900.0000314712536 444.00720435758734 " transform="rotate(600, 400, 400)"></path><path d="M-89.99999906539914 406.7445570238993C-69.58333177566521 400.0070568182871 -32.83333065414416 370.474347583687 8.000003925323625 374.4045560369608C48.83333850479141 378.3347644902346 65.16667233657853 429.25903687765333 106.00000691604635 425.6095575996134C146.83334149551416 421.9600783215735 163.16667532730133 355.7641388014337 204.00000990676915 356.8870555023691C244.83334448623697 358.00997220330447 261.1666783180241 428.75372436223245 302.0000128974919 430.9995577641032C342.8333474769598 433.2453911659739 359.1666813087468 369.0707017075178 400.00001588821465 367.6670558313486C440.8333504676824 366.2634099551794 457.1666842994696 421.17403663091875 498.00001887893734 424.262057558491C538.8333534584053 427.35007848606324 555.1666872901923 379.96299370659085 596.0000218696601 382.48955628369544C636.833356449128 385.01611886079996 653.1666902809151 433.02080782578685 694.000024860383 436.3895579285929C734.8333594398508 439.758308031399 751.1666932716379 397.25591090099545 792.0000278511058 398.65955677716465C832.8333624305735 400.06320265333386 869.5833635520946 433.86299535148834 890.0000308418284 443.12705813420513 " transform="rotate(588, 400, 400)"></path><path d="M-79.99999908447262 406.6069146378737C-59.99999847412103 400.00691443645763 -23.999997375488164 371.07691355358406 16.000003845214962 374.92691367107676C56.00000506591812 378.7769137885694 72.00000555419936 428.66191531093887 112.00000677490254 425.0869152018385C152.00000799560576 421.51191509273815 168.00000848388697 356.66691311382573 208.00000970459018 357.7669131473951C248.0000109252934 358.86691318096445 264.0000114135746 428.1669152958326 304.00001263427777 430.3669153629713C344.000013854981 432.56691543011 360.00001434326214 369.70191351162237 400.00001556396535 368.3269134696607C440.00001678466845 366.951913427699 456.0000172729498 420.7419150692396 496.000018493653 423.7669151615553C536.0000197143562 426.79191525387097 552.0000202026373 380.37191383724496 592.0000214233405 382.84691391277596C632.0000226440438 385.32191398830696 648.0000231323249 432.3469154233961 688.0000243530283 435.64691552410414C728.0000255737315 438.94691562481216 744.0000260620126 397.3119143542128 784.0000272827158 398.6869143961744C824.000028503419 400.0619144381361 860.000029602052 433.17191544857315 880.0000302124035 442.2469157255201 " transform="rotate(576, 400, 400)"></path><path d="M-69.9999991035461 406.469272251848C-50.41666517257684 400.00677205462813 -15.166664096832164 371.6794795234811 24.000003765106328 375.4492713051927C63.16667162704482 379.21906308690427 78.83333877182022 428.06479374422435 118.00000663375874 424.5642728040636C157.1666744956973 421.06375186390284 172.83334164047267 357.5696874262178 212.00000950241122 358.6467707924211C251.16667736434977 359.72385415862436 266.83334450912514 427.5801062294329 306.0000123710637 429.73427296183945C345.1666802330022 431.8884396942461 360.83334737777756 370.333125315727 400.00001523971605 368.98677110797286C439.1666831016546 367.6404169002187 454.83335024643 420.3097935075605 494.0000181083685 423.27177276461964C533.1666859703071 426.2337520216787 548.8333531150824 380.78083396789907 588.000020977021 383.20427154185654C627.1666888389595 385.62770911581396 642.8333559837348 431.6730230210054 682.0000238456734 434.90427311961537C721.166691707612 438.1355232182253 736.8333588523873 397.36791780743005 776.0000267143259 398.7142720151842C815.1666945762645 400.0606262229383 850.4166956520091 432.4808355456579 870.0000295829784 441.3667733168352 " transform="rotate(564, 400, 400)"></path><path d="M-59.9999991226196 406.33162223642785C-40.833331871032655 400.00662204340415 -6.333330818176165 372.28203786398365 32.000003684997694 375.9716213099141C70.33333818817152 379.6612047558446 85.66667198944108 427.4676645481153 124.00000649261494 424.04162277689414C162.33334099578883 420.615581005673 177.66667479705836 358.4724541092153 216.00000930023225 359.52662080805254C254.33334380340614 360.5807875068898 269.66667760467567 426.9932895336385 308.00001210784956 429.1016229313131C346.33334661102344 431.20995632898763 361.66668041229286 370.964329490437 400.00001491546686 369.64662111689046C438.33334941864064 368.32891274334384 453.66668321991017 419.87766431648686 492.00001772308406 422.7766227382894C530.333352226258 425.67558116009195 545.6666860275275 381.18974646915865 584.0000205307014 383.56162154154254C622.3333550338754 385.9334966139264 637.6666888351448 430.9991229892202 676.0000233383187 434.16162308573206C714.3333578414927 437.3241231822439 729.666691642762 397.4239136312528 768.000026145936 398.7416220047994C806.33336064911 400.059330378346 840.8333617019664 431.7897480133482 860.0000289535533 440.4866232787557 " transform="rotate(552, 400, 400)"></path><path d="M-49.99999914169308 406.1939798504022C-31.24999856948847 400.00647966157464 2.500002460479834 372.8846038338807 40.00000360488906 376.49397894403006C77.50000474929823 380.1033540541795 92.50000520706192 426.87054298140083 130.00000635147114 423.5189803791192C167.50000749588037 420.1674177768377 182.50000795364406 359.3752284216073 220.00000909805328 360.40647845307853C257.5000102424625 361.4377284845498 272.5000107002262 426.40648046723874 310.0000118446354 428.4689805301812C347.50001298904465 430.5314805931238 362.5000134468083 371.59554129454165 400.00001459121756 370.30647875520253C437.5000157356267 369.0174162158635 452.50001619339037 419.4455427548078 490.0000173377997 422.2814803413537C527.5000184822089 425.1174179278997 542.5000189399725 381.59866659981276 580.0000200843818 383.9189791706231C617.5000212287911 386.2392917414334 632.5000216865546 430.3252305868295 670.000022830964 433.4189806812433C707.5000239753732 436.512730775657 722.5000244331368 397.47991708447006 760.000025577546 398.7689796238092C797.5000267219555 400.05804216314823 831.2500277519237 431.0986681104329 850.0000283241283 439.60648087007075 " transform="rotate(540, 400, 400)"></path><path d="M-39.99999916076656 406.05634509377103C-21.666665267944282 400.0063449091397 11.333335739135833 373.4871774331723 48.000003524780396 377.01634420754056C84.66667131042493 380.5455109819089 99.33333842468278 426.2734290440808 136.00000621032734 422.99634561073884C172.6666739959719 419.7192621773969 187.33334111022975 360.27801036339383 224.00000889587432 361.28634372749906C260.6666766815189 362.2946770916043 275.3333437957767 425.8196790302335 312.0000115814213 427.83634575844394C348.6666793670659 429.8530124866544 363.33334648132364 372.22676072804074 400.00001426696826 370.9663440229092C436.6666820526128 369.70592731777765 451.3333491668707 419.0134288225232 488.0000169525151 421.7863455738126C524.6666847381598 424.55926232510194 539.3333518524175 382.00759435986146 576.0000196380622 384.2763444290982C612.6666874237068 386.54509449833495 627.3333545379645 429.65134581383336 664.0000223236092 432.676345906149C700.6666901092538 435.7013459984647 715.3333572235115 397.5359281670819 752.0000250091562 398.7963448722134C788.6666927948008 400.05676157734496 821.6666938018808 430.40759583691226 840.0000276947031 438.72634609078034 " transform="rotate(528, 400, 400)"></path><path d="M-29.99999917984006 405.9187027077454C-12.083331966400095 400.0062025273102 20.166669017791833 374.08974340306935 56.000003444671734 377.5387018416565C91.83333787155163 380.9876602802437 106.16667164230361 425.6763074773663 142.00000606918354 422.4737032129639C177.83334049606344 419.27109894856153 192.16667426681545 361.18078467578584 228.00000869369535 362.16620137252505C263.8333431205753 363.15161806926426 278.16667689132726 425.23286996383365 314.00001131820716 427.20370335731207C349.8333457450871 429.1745367507905 364.166679515839 372.8579725321453 400.00001394271897 371.62620166122133C435.833348369599 370.39443079029735 450.1666821403509 418.5813072608441 486.0000165672308 421.2912031768769C521.8333509941108 424.00109909290967 536.1666847648626 382.41651449051557 572.0000191917426 384.63370205817876C607.8333536186226 386.85088962584194 622.1666873893745 428.97745341144264 658.0000218162545 431.9337035016602C693.8333562431345 434.8899535918778 708.1666900138863 397.5919316202992 744.0000244407662 398.8237024912232C779.8333588676462 400.05547336214715 812.0833598518382 429.716515933997 830.0000270652781 437.8462036820954 " transform="rotate(516, 400, 400)"></path><path d="M-19.999999198913542 405.7810603217198C-2.4999986648559087 400.0060601454808 29.000002296447846 374.6923093729664 64.0000033645631 378.0610594757725C99.00000443267834 381.42980957857856 113.00000485992445 425.0791859106518 148.00000592803974 421.951060815189C183.00000699615498 418.8229357197262 197.00000742340114 362.08355898817786 232.00000849151638 363.04605901755104C267.0000095596317 364.0085590469242 281.0000099868778 424.64606089743387 316.0000110549931 426.57106095618025C351.0000121231083 428.49606101492657 365.0000125503544 373.48918433624993 400.0000136184696 372.28605929953346C435.0000146865849 371.082934262817 449.00001511383107 418.149185699165 484.0000161819463 420.79606077994123C519.0000172500617 423.44293586071745 533.0000176773076 382.8254346211697 568.000018745423 384.9910596872593C603.0000198135383 387.15668475334894 617.0000202407842 428.3035610090519 652.0000213088997 431.1910610971714C687.0000223770151 434.07856118529094 701.0000228042611 397.64793507351646 736.0000238723762 398.85106011023294C771.0000249404916 400.0541851469494 802.5000259017954 429.0254360310818 820.000026435853 436.96606127341045 " transform="rotate(504, 400, 400)"></path><path d="M-9.999999217987025 405.64340267690505C7.083334636688278 400.0059025048622 37.833335575103845 375.29486008407434 72.00000328445446 378.5834018510994C106.16667099380504 381.87194361812436 119.8333380775453 424.4820490851482 154.00000578689594 421.42840315862503C188.16667349624657 418.37475723210184 201.83334057998684 362.9863180417808 236.00000828933742 363.925901403788C270.16667599868805 364.8654847657951 283.8333430824283 424.059236572245 318.00001079177895 425.9384032962593C352.1666785011296 427.8175700202736 365.83334558486973 374.12038088156544 400.00001329422037 372.94590167905653C434.16668100357106 371.77142247654757 447.83334808731126 417.7170488786968 482.00001579666196 420.30090312421646C516.1666835060126 422.8847573697361 529.8333505897527 383.2343394930347 564.0000182991034 385.3484020575508C598.1666860084541 387.4624646220669 611.8333530921942 427.6296533478722 646.0000208015449 430.44840343389365C680.1666885108956 433.26715351991504 693.8333555946357 397.70392326794473 728.0000233039865 398.87840247045364C762.1666910133371 400.05288167296254 792.9166919517527 428.33434086937757 810.000025806428 436.08590360593644 " transform="rotate(492, 400, 400)"></path><path d="M7.629394787045385e-7 405.5057641055767C16.66666793823248 400.00576393772997 46.66666885375986 375.89742986866867 80.00000320434583 379.1057632999126C113.33333755493177 382.3140967311565 126.66667129516617 423.884931333131 160.0000056457521 420.9057645755474C193.33333999633805 417.9265978179638 206.66667373657253 363.8890961688701 240.00000808715845 364.80576286351123C273.3333424377444 365.7224295581523 286.66667617797884 423.4724313205425 320.0000105285648 425.30576470982476C353.3333448791508 427.13909809910695 366.66667861938515 374.75159650036727 400.0000129699711 373.60576313206593C433.3333473205571 372.45992976376453 446.66668106079146 417.284931131715 480.0000154113775 419.8057645419781C513.3333497619635 422.3265979522411 526.6666835021978 383.6432634383861 560.0000178527838 385.7057635013286C593.3333522033698 387.76826356427114 606.6666859436041 426.95576476017874 640.0000202941902 429.7057648441021C673.3333546447761 432.4557649280254 686.6666883850104 397.75993053585927 720.0000227355965 398.90576390416066C753.3333570861826 400.05159727246206 783.3333580017098 427.6432647811596 800.0000251770028 435.20576501194876 " transform="rotate(480, 400, 400)"></path><path d="M10.000000743865996 405.368121719551C26.25000123977665 400.0056215559005 55.50000213241586 376.4999958385657 88.00000312423717 379.6281209340285C120.50000411605848 382.75624602949136 133.500004512787 423.2878097664165 166.00000550460834 420.38312217777246C198.50000649642965 417.4784345891285 211.50000689315823 364.7918704812621 244.00000788497954 365.6856205085372C276.50000887680085 366.5793705358123 289.5000092735294 422.88562225414273 322.0000102653507 424.6731223086929C354.50001125717205 426.46062236324303 367.5000116539005 375.3828083044719 400.0000126457218 374.265620770378C432.50001363754313 373.1484332362842 445.5000140342717 416.8528095700359 478.000015026093 419.3106221450424C510.5000160179145 421.76843472004884 523.5000164146428 384.0521835690402 556.0000174064643 386.0631211304092C588.5000183982855 388.07405869177813 601.5000187950141 426.2818723577881 634.0000197868354 428.9631224396133C666.5000207786568 431.6443725214386 679.5000211753852 397.81593398907654 712.0000221672066 398.9331215231704C744.500023159028 400.05030905726426 773.7500240516671 426.95218487824434 790.0000245475778 434.3256226032638 " transform="rotate(468, 400, 400)"></path><path d="M20.000000724792514 405.2304774261768C35.83333454132085 400.0054772667224 64.33333541107186 377.10255990111415 96.00000304412853 380.15047666079585C127.66667067718515 383.1983934204776 140.33333773040783 422.69068629235335 172.00000536346454 419.8604778726489C203.66667299652124 417.0302694529445 216.33334004974387 365.6946428863055 248.00000768280057 366.56547624621453C279.6666753158572 367.4363096061236 292.3333423690799 422.29881128039426 324.0000100021366 424.04047800021243C355.6666776351933 425.78214472003054 368.3333446884159 376.0140182012278 400.0000123214726 374.9254765013415C431.66667995452923 373.8369348014552 444.3333470077519 416.42068610100813 476.00001464080856 418.81547784075804C507.6666822738654 421.210269580508 520.333349327088 384.4611017923457 552.0000169601446 386.42047685214106C583.6666845932014 388.3798519119365 596.3333516464239 425.6079780480487 628.0000192794806 428.2204781277759C659.6666869125373 430.83297820750306 672.3333539657599 397.8719355349452 704.0000215988167 398.9604772348315C735.6666892318734 400.0490189347179 764.1666901016245 426.2611030679805 780.0000239181527 433.44547828723023 " transform="rotate(456, 400, 400)"></path><path d="M30.000000705719017 405.09282550340794C45.41666784286504 400.00532534814977 73.16666868972786 377.70511633426804 104.00000296401987 380.67282475816864C134.83333723831186 383.64053318206925 147.1666709480287 422.0935551888957 178.0000052223207 419.33782593813083C208.83333949661275 416.582096687366 221.16667320632956 366.5974076619543 252.0000074806216 367.44532435449736C282.8333417549136 368.2932410470404 295.16667546463043 421.7119926772513 326.0000097389225 423.4078260623374C356.83334401321446 425.10365944742347 369.16667772293124 376.6452204685893 400.0000119972233 375.5853246029105C430.8333462715153 374.52542873723166 443.16667998123216 415.9885550025859 474.0000142555241 418.3203259070792C504.83334852981625 420.65209681157256 517.166682239533 384.87001238625663 548.000016513825 386.7778249444785C578.8333507881172 388.6856375027003 591.1666844978338 424.93407610891484 622.0000187721258 427.47782618654395C652.833353046418 430.02157626417306 665.1666867561347 397.92792945141935 696.0000210304268 398.9878253170981C726.8333553047189 400.0477211827769 754.5833561515817 425.5700136283221 770.0000232887277 432.5653263418021 " transform="rotate(444, 400, 400)"></path><path d="M40.000000686645535 404.95518883942816C55.000001144409225 400.00518868836616 82.00000196838387 378.307688026211 112.00000288391124 381.1951881143305C142.0000037994386 384.08268820245 154.00000416564953 421.4964393442271 184.0000050811769 418.8151892624018C214.0000059967043 416.1339391805766 226.00000636291526 367.5001876963923 256.00000727844264 368.32518772156925C286.00000819397 369.15018774674627 298.00000856018096 421.12518933289743 328.00000947570834 422.7751893832515C358.0000103912357 424.42518943360545 370.0000107574466 377.27643799473975 400.000011672974 376.2451879632685C430.00001258850136 375.21393793179726 442.00001295471236 415.55643916295264 472.00001387023974 417.8251892321894C502.0000147857671 420.0939393014262 514.000015151978 385.2789382389567 544.0000160675054 387.1351882956049C574.0000169830329 388.99143835225317 586.0000173492438 424.2601894285701 616.0000182647711 426.7351895041011C646.0000191802985 429.2101895796321 658.0000195465094 397.9839386266825 688.0000204620369 399.01518865815376C718.0000213775643 400.046438689625 745.0000222015389 424.8789394474528 760.0000226593025 431.6851896551631 " transform="rotate(432, 400, 400)"></path><path d="M50.00000066757205 404.8175502680998C64.58333444595341 400.005050121234 90.83333524703987 378.9102578108053 120.0000028038026 381.71754956314373C149.1666703605653 384.52484131548215 160.8333373832704 420.89932159220984 190.0000049400331 418.29255067932417C219.16667249679585 415.68577976643854 230.83333951950092 368.40296582348157 260.00000707626367 369.2050491812925C289.1666746330264 370.0071325391035 300.8333416557315 420.5383840811949 330.00000921249426 422.14255079681686C359.166676769257 423.7467175124388 370.833343791962 377.9076536135416 400.00001134872474 376.9050494162779C429.16667890548746 375.90244521901417 440.83334592819256 415.1243214159708 470.00001348495533 417.33005064995103C499.166681041718 419.5357798839312 510.83334806442303 385.6878621843081 540.0000156211859 387.49254973938275C569.1666831779486 389.29723729445743 580.8333502006536 423.5863008408766 610.0000177574163 425.99255091430956C639.1666853141792 428.39880098774245 650.8333523368841 398.03994589459705 680.0000198936469 399.0425500918608C709.1666874504097 400.0451542891245 735.4166882514962 424.1878633592348 750.0000220298774 430.8050510611754 " transform="rotate(420, 400, 400)"></path><path d="M60.000000648498556 404.67990025267966C74.1666677474976 400.00490011000994 99.66666852569588 379.51281615130785 128.00000272369394 382.23989956786517C156.333336921692 384.9669829844225 167.66667060089122 420.3021923961008 196.0000047988893 417.7699006521547C224.3333389968874 415.23760890820864 235.66667267608665 369.30573250647905 264.00000687408465 370.08489919692397C292.3333410720828 370.86406588736895 303.666674751282 419.9515673854006 332.0000089492801 421.50990076629046C360.3333431472782 423.06823414718036 371.6666768264774 378.5388577882517 400.00001102447544 377.56489942519545C428.33334522247355 376.5909410621393 439.66667890167275 414.6921922248972 468.0000130996708 416.8349006236208C496.333347297669 418.9776090223444 507.66668097686807 386.09677468556765 536.0000151748661 387.84989973906875C564.3333493728644 389.6030247925699 575.6666830520635 422.91240080909137 604.0000172500615 425.24990088042625C632.3333514480597 427.5874009517611 643.6666851272589 398.0959417184198 672.000019325257 399.069900081476C700.3333535232551 400.0438584445322 725.8333543014534 423.4967758269251 740.0000214004524 429.9249010230959 " transform="rotate(408, 400, 400)"></path><path d="M70.00000062942507 404.54224451521355C83.75000104904178 400.00474437674006 108.50000180435188 380.1153687697645 136.00000264358528 382.7622438505407C163.50000348281873 385.4091189313169 174.50000381851208 419.7050574779459 202.0000046577455 417.2472449029394C229.50000549697896 414.7894323279329 240.50000583267231 370.2084934674306 268.0000066719058 370.96474349050953C295.5000075111392 371.72099351358844 306.50000784683255 419.36474496756034 334.000008686066 420.8772450137182C361.5000095252994 422.389745059876 372.50000986099275 379.1700562409158 400.00001070022614 378.22474371206715C427.5000115394596 377.2794311832185 438.50001187515295 414.26005731177764 466.0000127143864 416.3397448752447C493.50001355361985 418.41943243871174 504.50001388931315 386.50568146478133 532.0000147285466 388.2072440167089C559.5000155677801 389.90880656863646 570.5000159034735 422.2384950552603 598.0000167427069 424.507245124497C625.5000175819404 426.77599519373376 636.5000179176336 398.1519318201967 664.0000187568671 399.09724434904535C691.5000195961006 400.04255687789396 716.2500203514107 422.8056825725695 730.0000207710274 429.04474526297054 " transform="rotate(396, 400, 400)"></path><path d="M80.00000061035159 404.4046154806283C93.33333435058597 400.004615346351 117.33333508300788 380.71794809110196 144.00000256347664 383.28461483609703C170.66667004394543 385.85128158109217 181.33333703613292 419.1079492626718 208.0000045166017 416.72461585660494C234.6666719970705 414.341282450538 245.333338989258 371.11128113126307 272.0000064697268 371.84461448697596C298.66667395019556 372.57794784268884 309.3333409423831 418.777949252601 336.00000842285186 420.24461596402676C362.66667590332065 421.7112826754526 373.3333428955081 379.8012813964608 400.0000103759769 378.8846147018197C426.6666778564457 377.9679480071786 437.33334484863315 413.827949101539 464.00001232910193 415.84461582974944C490.6666798095708 417.8612825579599 501.33334680175824 386.9146149468759 528.0000142822271 388.5646149972299C554.6666817626958 390.2146150475839 565.3333487548832 421.56461600431 592.0000162353521 423.76461607144864C618.6666837158209 425.96461613858736 629.3333507080083 398.2079486248544 656.0000181884773 399.1246153194955C682.6666856689461 400.04128201413664 706.6666864013679 422.11461602109466 720.0000201416022 428.164616205726 " transform="rotate(384, 400, 400)"></path><path d="M90.0000005912781 404.2669673725568C102.91666765213017 400.0044672424756 126.16666836166388 381.3205083389531 152.000002483368 383.8069667481671C177.83333660507213 386.29342515738114 188.16667025375375 418.5108219739114 214.0000043754579 416.20196773678407C239.83333849716203 413.8931134996568 250.16667214584368 372.0140497216092 276.00000626754786 372.72446640995605C301.83334038925193 373.4348830983029 312.1666740379336 418.1911344641553 338.00000815963773 419.61196784084905C363.83334228134186 421.0328012175428 374.1666759300235 380.43248747851953 400.0000100517276 379.54446661808595C425.8333441734317 378.65644575765236 436.1666778221134 413.39582181781395 462.0000119438175 415.34946771076784C487.8333460655217 417.3031136037217 498.16667971420327 387.3235293554841 524.0000138359075 388.92196690426454C549.8333479576116 390.520404453045 560.1666816062932 420.89071787987336 586.0000157279974 423.02196794491397C611.8333498497016 425.15321800995457 622.1666834983831 398.26394635602577 648.0000176200873 399.15196721645935C673.8333517417915 400.03998807689294 697.0833524513251 421.4235303961335 710.0000195121772 427.2844680749952 " transform="rotate(372, 400, 400)"></path><path d="M100.00000057220461 404.12932117183385C112.50000095367436 400.00432104594887 135.0000016403199 381.9230704941529 160.00000240325937 384.3293205675858C185.00000316619884 386.73557064101874 195.0000034713746 417.9136965924996 220.0000042343141 415.6793215243119C245.0000049972536 413.44494645612417 255.00000530242937 372.91682021930393 280.0000060653689 373.6043202402848C305.0000068283083 374.2918202612656 315.00000713348413 417.60432158305827 340.00000789642365 418.9793216250199C365.0000086593631 420.3543216669816 375.00000896453884 381.06369546792683 400.00000972747836 380.2043204417008C425.0000104904178 379.34494541547474 435.0000107955936 412.9636964414376 460.0000115585331 414.8543214991349C485.00001232147264 416.7449465568322 495.0000126266483 387.7324456714409 520.0000133895878 389.27932071864785C545.0000141525275 390.8261957658547 555.0000144577031 420.21682166278543 580.0000152206426 422.2793217257279C605.0000159835822 424.3418217886705 615.0000162887578 398.31994599454583 640.0000170516973 399.17932102077185C665.0000178146369 400.03869604699787 687.5000185012824 420.73244667852106 700.0000188827521 426.40432185161296 " transform="rotate(360, 400, 400)"></path><path d="M110.00000055313113 403.9916711564137C122.08333425521855 400.00417103472483 143.83333491897588 382.5256288346554 168.0000023231507 384.8516705723072C192.16666972732554 387.1777123099591 201.83333668899544 417.3165673963906 226.00000409317028 415.15667149714244C250.16667149734513 412.9967755978943 259.83333845901507 373.8195869023014 284.0000058631899 374.48417025591624C308.1666732673648 375.148753609531 317.83334022903466 417.01750488726395 342.0000076332095 418.34667159449356C366.1666750373843 419.67583830172316 375.8333419990542 381.69489964263687 400.00000940322906 380.86417045061836C424.1666768074039 380.03344125859985 433.8333437690738 412.531567250364 458.00001117324865 414.3591714728047C482.16667857742357 416.18677569524544 491.83334553909333 388.1413581727005 516.0000129432683 389.63667071833385C540.1666803474432 391.1319832639672 549.8333473091129 419.5429216310002 574.0000147132879 421.5366716918446C598.1666821174626 423.53042175268905 607.8333490791326 398.3759418183686 632.0000164833075 399.2066710103871C656.1666838874823 400.0374002024056 677.9166845512397 420.0413591462113 690.0000182533271 425.5241718135335 " transform="rotate(348, 400, 400)"></path><path d="M120.00000053405763 403.8540325850853C131.66666755676272 400.00403246759265 152.6666681976319 383.1281986192497 176.00000224304208 385.37403202112046C199.33333628845224 387.6198654229912 208.6666699066163 416.71944964437336 232.0000039520265 414.6340329140648C255.3333379974367 412.5486161837563 264.66667161560076 374.7223650293907 288.00000566101096 375.3640317156395C311.33333970642116 376.00569840188825 320.6666733245852 416.4306996355614 344.0000073699954 417.71403300805895C367.3333414154056 418.9973663805565 376.66667503356956 382.32611526143876 400.0000090789798 381.52403190362776C423.33334312438996 380.7219485458168 432.66667674255405 412.0994495033821 456.00001078796424 413.86403289056625C479.33334483337444 415.62861627775044 488.6666784515385 388.55028211805194 512.0000124969486 389.9940321621117C535.3333465423589 391.43778220617145 544.6666801605229 418.8690330433068 568.0000142059331 420.7940331020531C591.3333482513433 422.7190331607994 600.6666818695073 398.4319490862831 624.0000159149176 399.2340324440941C647.3333499603277 400.03611580190505 668.3333506011969 419.35028305799335 680.000017623902 424.6440332195458 " transform="rotate(336, 400, 400)"></path><path d="M130.00000051498415 403.7163901990597C141.25000085830692 400.00389008576315 161.5000014762879 383.73076458914676 184.0000021629334 385.8963896552364C206.50000284957895 388.062014721326 215.50000312423714 416.12232807765884 238.00000381088267 414.11139051628993C260.50000449752827 412.10045295492097 269.50000477218646 375.6251393417827 292.000005458832 376.2438893606655C314.5000061454775 376.8626393795482 323.5000064201357 415.8438905691616 346.00000710678125 417.08139060692713C368.5000077934268 418.3188906446926 377.500008068085 382.9573270655433 400.0000087547305 382.1838895419399C422.500009441376 381.41045201833646 431.50000971603424 411.66732794170304 454.0000104026798 413.3688904936306C476.50001108932537 415.07045304555817 485.5000113639835 388.95920224870605 508.0000120506291 390.3513897911922C530.5000127372746 391.7435773336784 539.5000130119329 418.19514064091607 562.0000136985783 420.05139069756433C584.500014385224 421.9076407542126 593.500014659882 398.4879525395004 616.0000153465276 399.2613900631039C638.5000160331732 400.0348275867073 658.7500166511542 418.6592031550781 670.0000169944769 423.76389081086086 " transform="rotate(324, 400, 400)"></path><path d="M140.00000049591068 403.57875162773126C150.83333415985112 400.00375151863096 170.3333347549439 384.3333343737411 192.00000208282478 386.41875110404965C213.66666941070565 388.50416783435816 222.333336341858 415.5252103256416 244.00000366973887 413.5887519332123C265.66667099761975 411.6522935407829 274.33333792877215 376.52791746887203 296.000005256653 377.12375082038875C317.6666725845339 377.71958417190547 326.33333951568625 415.2570853174591 348.0000068435671 416.4487520204925C369.666674171448 417.64041872352595 378.33334110260034 383.5885426843452 400.0000084304812 382.8437509949493C421.66667575836215 382.09895930555336 430.3333426895145 411.23521019472116 452.0000100173953 412.87375191139216C473.6666773452763 414.51229362806316 482.33334427642853 389.3681261940574 504.0000116043095 390.70875123497007C525.6666789321905 392.04937627588265 534.3333458633426 417.5212520532226 556.0000131912236 419.3087521077728C577.6666805191046 421.09625216232297 586.3333474502567 398.543959807415 608.0000147781377 399.28875149681085C629.6666821060187 400.03354318620677 649.1666827011115 417.9681270668602 660.0000163650518 422.8837522168732 " transform="rotate(312, 400, 400)"></path><path d="M149.9999852180481 403.44110924170565C160.41665220260623 400.00360913680146 179.16665277481084 384.93590034363814 199.99998674392708 386.94110873816555C220.8333207130433 388.946317132693 229.1666543006898 414.9280887589271 249.999988269806 413.06610953543736C270.8333222389223 411.20413031194755 279.1666558265688 377.43069178126404 299.999989795685 378.00360846541474C320.8333237648012 378.57652514956544 329.1666573524477 414.67027625105925 349.999991321564 415.81610961936065C370.8333252906802 416.96194298766204 379.16665887832664 384.2197544884498 399.99999284744285 383.5036086332614C420.8333268165591 382.78746277807306 429.1666604042056 410.8030886330421 449.99999437332184 412.3786095144565C470.8333283424381 413.9541303958709 479.16666193008456 389.77704632471153 499.9999958992008 391.0661088640506C520.8333298683172 392.35517140338965 529.1666634559635 416.84735965083195 549.9999974250798 418.56610970328404C570.8333313941961 420.2848597557361 579.1666649818425 398.59996326063225 599.9999989509588 399.3161091158206C620.833332920075 400.03225497100897 639.5833334922796 417.277047163945 650.0000004768377 422.0036098081882 " transform="rotate(300, 400, 400)"></path><path d="M159.99998519897463 403.3034554115882C169.9999855041504 400.00345531088016 187.99998605346684 385.5384548694434 207.99998666381842 387.4634549281897C227.99998727417 389.3884549869361 235.9999875183106 414.3309557481208 255.9999881286622 412.54345569357065C275.9999887390138 410.75595563902044 283.9999889831544 378.33345464956426 303.99998959350603 378.88345466634894C323.99999020385764 379.43345468313356 331.99999044799824 414.0834557405677 351.9999910583498 415.18345577413703C371.99999166870145 416.2834558077064 379.999991912842 384.85095484846255 399.9999925231936 384.1634548274817C419.99999313354516 383.4759548065009 427.9999933776858 410.3709556272712 447.99999398803743 411.883455673429C467.99999459838904 413.3959557195869 475.9999948425296 390.18595501127385 495.9999954528812 391.4234550490394C515.9999960632329 392.66095508680485 523.9999963073734 416.17345580434943 543.9999969177251 417.8234558547034C563.9999975280766 419.47345590505745 571.9999977722173 398.6559552697577 591.9999983825688 399.3434552907386C611.9999989929204 400.0309553117194 629.999999542237 416.58595581693794 639.9999998474127 421.12345595541143 " transform="rotate(288, 400, 400)"></path><path d="M169.99998517990116 403.1658149329112C179.5833188056946 400.00331483639934 196.83331933212287 386.1410227466891 215.99998658370978 387.9858144696543C235.1666538352967 389.8306061926196 242.83332073593147 413.7338360887549 261.9999879875184 412.02081520314437C281.16665523910535 410.30779431753376 288.8333221397401 379.2362308693049 307.99998939132706 379.7633142187235C327.166656642914 380.29039756814217 334.8333235435488 413.4966485815165 353.9999907951357 414.55081528035385C373.16665804672266 415.6049819791911 380.83332494735737 385.4821685599158 399.99999219894437 384.82331437314247C419.16665945053126 384.1644601863692 426.833326351166 409.9388359729407 445.99999360275297 411.388315183842C465.1666608543399 412.83779439474324 472.8333277549747 390.5948770492766 491.9999950065616 391.78081458546853C511.1666622581486 392.9667521216605 518.8333291587833 415.49956530930734 537.9999964103703 417.08081535756327C557.1666636619573 418.6620654058192 564.833330562592 398.7119606303237 583.9999978141789 399.37081481709697C603.166665065766 400.02966900387025 620.4166655921941 415.8948778213713 629.9999992179876 420.2433154540751 " transform="rotate(276, 400, 400)"></path><path d="M179.99998516082763 403.0281706395369C189.1666521072388 400.0031705472212 205.66665261077884 386.7435868092375 223.99998650360112 388.50817019642164C242.3333203964234 390.2727535836058 249.66665395355233 413.13671261469176 267.9999878463746 411.4981708980208C286.3333217391969 409.8596291813498 293.6666552963258 380.1390032743483 311.9999891891481 380.64316995640087C330.3333230819704 381.1473366384535 337.6666566390993 412.9098376077681 355.9999905319216 413.91817097187334C374.33332442474386 414.92650433597856 381.66665798187273 386.11337845667174 399.99999187469507 385.48317010410597C418.33332576751735 384.8529617515402 425.6666593246463 409.506712503913 443.9999932174685 410.89317087955766C462.33332711029084 412.27962925520234 469.6666606674197 391.00379527258207 487.99999456024204 392.1381703072005C506.3333284530643 393.27254534181884 513.6666620101932 414.82567099956805 531.9999959030156 416.33817104572586C550.3333297958378 417.8506710918837 557.6666633529667 398.7679621761923 575.999997245789 399.3981705287581C594.3333311386114 400.0283788813239 610.8333316421513 415.2037960111075 619.9999985885624 419.36317113804154 " transform="rotate(264, 400, 400)"></path><path d="M189.99998514175417 402.89052634616263C198.749985408783 400.0030262580431 214.49998588943487 387.34615087178594 231.9999864234925 389.030525923189C249.4999869575501 390.714900974592 256.4999871711732 412.53958914062866 273.9999877052308 410.97552659289727C291.4999882392884 409.41146404516587 298.4999884529115 381.04177567939166 315.99998898696913 381.5230256940782C333.4999895210268 382.00427570876485 340.49998973464983 412.3230266340197 357.9999902687075 413.28552666339283C375.49999080276507 414.248026692766 382.49999101638815 386.7445883534277 399.99999155044577 386.14302583506947C417.4999920845034 385.5414633167112 424.4999922981265 409.0745890348852 441.9999928321841 410.3980265752733C459.49999336624177 411.72146411566143 466.49999357986474 391.41271349588754 483.9999941139224 392.4955260289324C501.4999946479801 393.5783385619772 508.49999486160306 414.1517766898287 525.9999953956608 415.59552673388845C543.4999959297185 417.0392767779482 550.4999961433415 398.82396372206097 567.999996677399 399.42552624041923C585.4999972114567 400.02708875877744 601.2499976921086 414.5127142008437 609.9999979591374 418.48302682200796 " transform="rotate(252, 400, 400)"></path><path d="M199.9999851226807 402.7528801454397C208.33331871032718 400.00288006151635 223.33331916809087 387.94871302698573 239.99998634338385 389.5528797426077C256.6666535186768 391.1570464582296 263.33332038879405 411.9424637592169 279.999987564087 410.4528803804251C296.66665473937996 408.96329700163324 303.3333216094972 381.9445461770864 319.99998878479016 382.40287952440696C336.6666559600832 382.8612128717275 343.33332283020036 411.7362137529226 359.9999900054934 412.65288044756375C376.66665718078633 413.56954714220484 383.3333240509035 387.37579634283503 399.99999122619647 386.80287965868433C416.6666584014895 386.22996297453363 423.33332527160667 408.64246365850886 439.9999924468997 409.9028803636404C456.6666596221927 411.16329706877195 463.3333264923098 391.82162981184445 479.99999366760284 392.8528798433157C496.66666084289585 393.88412987478694 503.333327713013 413.47788047274076 519.999994888306 414.8528805147024C536.666662063599 416.2278805566641 543.3333289337161 398.879963360581 559.9999961090092 399.45288004473167C576.6666632843022 400.02579672888237 591.6666637420658 413.82163048323116 599.9999973297124 417.60288059862575 " transform="rotate(240, 400, 400)"></path><path d="M209.99998510360717 402.6152377594141C217.91665201187135 400.0027376796869 232.16665244674687 388.5512789968828 247.99998626327522 390.07523737672363C263.8333200798035 391.5991957565645 270.16665360641485 411.34534219250236 285.9999874229432 409.93023798265017C301.83332123947156 408.5151337727979 308.16665476608284 382.8473204894784 323.9999885826112 383.28273716943295C339.83332239913955 383.7181538493875 346.1666559257509 411.1494046865228 361.99998974227924 412.02023804643187C377.8333235588076 412.8910714063409 384.1666570854189 388.0070081469396 399.9999909019472 387.46273729699647C415.8333247184755 386.9184664470533 422.16665824508686 408.2103420968298 437.9999920616152 409.4077379667047C453.8333258781436 410.6051338365797 460.1666594047549 392.23054994249856 475.99999322128326 393.2102374723962C491.8333270378116 394.18992500229393 498.1666605644229 412.80398807035004 513.9999943809512 414.11023811021363C529.8333281974797 415.4164881500772 536.1666617240909 398.9359668137983 551.9999955406192 399.48023766374143C567.8333293571477 400.0245085136846 582.0833297920232 413.1305505803159 589.9999967002873 416.7227381899408 " transform="rotate(228, 400, 400)"></path><path d="M219.9999850845337 402.4775953733884C227.49998531341555 400.0025952978574 240.99998572540287 389.15384496677984 255.99998618316656 390.59759501083954C270.9999866409302 392.04134505489935 276.9999868240357 410.74822062578784 291.9999872817994 409.40759558487525C306.9999877395631 408.0669705439626 312.99998792266854 383.75009480187043 327.9999883804322 384.16259481445894C342.9999888381959 384.57509482704745 348.9999890213014 410.56259562012303 363.9999894790651 411.38759564530005C378.9999899368288 412.212595670477 384.99999011993424 388.63821995104416 399.99999057769793 388.12259493530854C414.9999910354616 387.6069699195729 420.9999912185671 407.77822053515064 435.9999916763308 408.91259556976905C450.9999921340945 410.0469706043874 456.99999231719994 392.63947007315267 471.99999277496363 393.5675951014768C486.9999932327274 394.49572012980093 492.9999934158328 412.1300956679593 507.9999938735965 413.36759570572485C522.9999943313602 414.6050957434903 528.9999945144657 398.9919702670156 543.9999949722294 399.5075952827512C558.9999954299931 400.0232202984868 572.4999958419803 412.4394706774007 579.9999960708622 415.84259578125585 " transform="rotate(216, 400, 400)"></path><path d="M229.99998506546024 402.3399548947114C237.08331861495975 400.0024548233766 249.83331900405886 389.7564128440255 263.9999861030579 391.11995455230414C278.1666532020569 392.4834962605828 283.8333200416565 410.151100966422 297.9999871406556 408.88495509444897C312.16665423965463 407.61880922247593 317.83332107925423 384.6528710216111 331.99998817825326 385.04245436683357C346.16665527725235 385.43203771205606 351.83332211685195 409.9757884610719 365.999989215851 410.7549551515168C380.16665631485 411.5341218419618 385.83332315444966 389.2694336624974 399.9999902534487 388.7824544809693C414.1666573524477 388.29547529944125 419.8333241920473 407.3461008808202 433.99999129104634 408.417455080182C448.1666583900454 409.4888092795438 453.83332522964497 393.0483921111554 467.999992328644 393.92495463790596C482.16665942764314 394.80151716465656 487.8333262672427 411.4562051729173 501.9999933662417 412.6249552085847C516.1666604652407 413.7937052442521 521.8333273048404 399.0479756275815 535.9999944038394 399.5349548091096C550.1666615028385 400.0219339906377 562.9166618919376 411.7483926818341 569.9999954414371 414.96245527991954 " transform="rotate(204, 400, 400)"></path><path d="M239.9999850463867 402.20230869398847C246.66665191650392 400.0023086268498 258.6666522827149 390.35897499922527 271.99998602294926 391.64230837172283C285.3333197631837 392.9256417442204 290.6666532592774 409.5539755850102 303.9999869995118 408.3623088819768C317.33332073974617 407.17064217894335 322.6666542358399 385.5556415193058 335.99998797607435 385.9223081971623C349.3333217163087 386.28897487501877 354.6666552124025 409.38897557997484 367.99998895263684 410.1223089356877C381.33332269287126 410.8556422914006 386.666656188965 389.9006416519047 399.9999899291994 389.4423083045842C413.33332366943375 388.9839749572636 418.6666571655275 406.9139755044438 431.99999090576193 407.92230886854907C445.3333246459963 408.93064223265424 450.66665814209006 393.45730842711225 463.9999918823245 394.28230845228927C477.33332562255885 395.10730847746623 482.66665911865255 410.7823089558293 495.99999285888697 411.88230898939867C509.3333265991214 412.98230902296797 514.6666600952151 399.10397526610154 527.9999938354496 399.5623086134221C541.333327575684 400.02064196074264 553.3333279418948 411.05730896422165 559.9999948120121 414.0823090565373 " transform="rotate(192, 400, 400)"></path><path d="M249.99998502731324 402.06466058591695C256.2499852180481 400.0021605229744 267.49998556137086 390.9615352470764 279.9999859428406 392.1646602837929C292.4999863243104 393.36778532050937 297.49998647689824 408.9568482962498 309.999986858368 407.839660762156C322.49998723983776 406.7224732280621 327.4999873924256 386.458410109652 339.9999877738954 386.8021601201424C352.4999881553651 387.1459101306328 357.499988307953 408.8021607915291 369.99998868942276 409.48966081250995C382.4999890708925 410.1771608334908 387.4999892234804 390.53184773396345 399.9999896049501 390.1021602208504C412.49998998641985 389.67247270773737 417.49999013900776 406.4818482207188 429.99999052047747 407.42716074956746C442.4999909019473 408.3724732784161 447.4999910545351 393.86622283572046 459.99999143600485 394.6396603593239C472.49999181747467 395.41309788292733 477.49999197006247 410.1084108313927 489.9999923515322 411.139660862864C502.49999273300205 412.17091089433524 507.49999288558985 399.1599729972729 519.9999932670596 399.58966051038595C532.4999936485294 400.01934802349894 543.7499939918521 410.3662233392605 549.999994182587 413.2021609258065 " transform="rotate(180, 400, 400)"></path><path d="M259.9999850082398 401.9270181998913C265.8333185195923 400.00201814114496 276.3333188400269 391.5641012169735 287.999985862732 392.68701791790886C299.6666528854371 393.80993461884424 304.3333196945191 408.3597267295353 315.9999867172242 407.31701836438106C327.6666537399293 406.2743099992268 332.3333205490113 387.361184422044 343.9999875717164 387.6820177651684C355.6666545944215 388.00285110829276 360.33332140350353 408.2153517251293 371.99998842620863 408.85701841137814C383.66665544891373 409.4986850976269 388.33332225799575 391.163059538068 399.99998928070085 390.76201785916254C411.66665630340594 390.360976180257 416.33332311248796 406.0497266590397 427.99999013519306 406.93201835263176C439.66665715789816 407.81431004622385 444.3333239669802 394.2751429663746 455.9999909896852 394.9970179884045C467.66665801239037 395.71889301043433 472.3333248214724 409.434518429002 483.9999918441775 410.39701845837516C495.6666588668826 411.35951848774835 500.3333256759646 399.2159764504902 511.99999269866976 399.61701812939566C523.6666597213748 400.0180598083012 534.1666600418093 409.6751434363453 539.9999935531619 412.32201851712153 " transform="rotate(168, 400, 400)"></path><path d="M269.99998498916625 401.7893710454941C275.4166518211365 400.00187099094387 285.1666521186829 392.16666241849896 295.9999857826233 393.20937078365324C306.8333194465638 394.2520791488075 311.16665291213997 407.76260039444924 321.99998657608035 406.79437119823456C332.83332024002084 405.8261420020199 337.166653705597 388.26395396606443 347.99998736953745 388.5618706418228C358.8333210334779 388.85978731758115 363.16665449905406 407.62853789035796 373.9999881629945 408.2243712418747C384.83332182693493 408.8202045933914 389.1666552925111 391.794266573801 399.99998895645155 391.42187072910303C410.833322620392 391.04947488440513 415.16665608596816 405.617600328989 425.9999897499086 406.4368711873245C436.8333234138491 407.25614204566 441.1666568794252 394.6840583286571 451.9999905433657 395.3543708491134C462.8333242073062 396.02468336956974 467.16665767288225 408.7606212582397 477.99999133682275 409.6543712855148C488.83332500076324 410.54812131278993 493.1666584663393 399.2719751353359 503.9999921302798 399.64437098003384C514.8333257942203 400.0167668247318 524.5833260917667 408.9840587650585 529.9999929237368 411.441871340065 " transform="rotate(156, 400, 400)"></path><path d="M280.00000022888185 401.65173152049135C285.00000038146976 400.0017314701374 294.00000065612795 392.76923124941897 304.0000009613037 393.73173127879215C314.00000126647956 394.6942313081653 318.00000138854983 407.16548168875767 328.0000016937256 406.2717316614826C338.00000199890144 405.3779816342075 342.00000212097177 389.1667311394794 352.00000242614755 389.44173114787174C362.0000027313233 389.7167311562641 366.00000285339365 407.04173168498113 376.0000031585694 407.59173170176575C386.00000346374526 408.14173171855043 390.00000358581553 392.42548123892857 400.00000389099137 392.0817312284381C410.0000041961671 391.7379812179477 414.0000043182374 405.18548162833287 424.00000462341325 405.94173165141177C434.0000049285891 406.6979816744907 438.0000050506593 395.09298132033416 448.0000053558351 395.71173133921695C458.00000566101096 396.3304813580997 462.00000578308124 408.086731716872 472.00000608825707 408.91173174204897C482.00000639343284 409.736731767226 486.0000065155032 399.32798144957616 496.00000682067895 399.67173146006655C506.0000071258547 400.01548147055695 515.000007400513 408.29298172316624 520.0000075531009 410.561731792403 " transform="rotate(144, 400, 400)"></path><path d="M290.0000002098084 401.5140862734428C294.58333368301396 400.0015862272849 302.833333934784 393.3717943582931 312.0000008811951 394.25408605188517C321.16666782760626 395.1363777454772 324.8333346061707 406.5683572610202 334.0000015525818 405.7490864026847C343.166668498993 404.9298155443492 346.83333527755747 390.06950259084846 356.0000022239686 390.3215859318748C365.1666691703797 390.57366927290104 368.8333359489442 406.45491975755834 378.00000289535535 406.959086439611C387.16666984176646 407.46325312166357 390.8333366203309 393.0566901820102 400.00000356674207 392.7415860057273C409.16667051315324 392.4264818294444 412.83333729171767 404.7533572056308 422.0000042381288 405.4465863934531C431.16667118453995 406.1398155812755 434.8333379631044 395.5018985899654 444.00000490951555 396.06908610727453C453.16667185592667 396.63627362458374 456.83333863449116 407.41283645345834 466.0000055809023 408.16908647653725C475.16667252731344 408.92533649961615 478.83333930587787 399.3839820417705 488.00000625228904 399.69908621805337C497.1666731987002 400.01419039433625 505.41667345047017 407.60189895922804 510.00000692367576 409.6815865226951 " transform="rotate(132, 400, 400)"></path><path d="M300.00000019073485 401.3764419800685C304.1666669845581 400.00144193810684 311.66666721343995 393.9743584208415 320.00000080108646 394.77644177865244C328.33333438873296 395.57852513646344 331.66666782379156 405.97123378695704 340.000001411438 405.2264420975612C348.3333349990845 404.48165040816525 351.66666843414316 390.97227499589184 360.0000020217896 391.20144166955214C368.3333356094361 391.4306083432124 371.6666690444947 405.86810878380993 380.0000026321412 406.3264421311305C388.3333362197877 406.7847754784511 391.66666965484626 393.6879000787661 400.00000324249277 393.4014417366908C408.3333368301393 393.1149833946154 411.66667026519787 404.32123373660306 420.0000038528444 404.95144208916884C428.3333374404909 405.5816504417346 431.66667087554947 395.91081681327086 440.000004463196 396.4264418290065C448.3333380508425 396.9420668447421 451.666671485901 406.738942143719 460.0000050735475 407.42644216469984C468.33333866119403 408.1139421856807 471.66667209625257 399.4399835876391 480.00000568389913 399.7264419297145C488.33333927154564 400.0129002717898 495.8333395004274 406.9108171489642 500.00000629425074 408.80144220666153 " transform="rotate(120, 400, 400)"></path><path d="M310.0000001716614 401.2387957793456C313.7500002861023 400.00129574158007 320.500000492096 394.5769205760413 328.0000007209778 395.29879559807114C335.50000094985967 396.02067062010104 338.50000104141236 405.3741084055453 346.0000012702942 404.703795885089C353.50000149917605 404.0334833646327 356.5000015907288 391.8750454935866 364.00000181961065 392.08129549988087C371.5000020484925 392.2875455061751 374.50000214004524 405.2812959027129 382.0000023689271 405.6937959153014C389.50000259780893 406.1062959278899 392.5000026893616 394.3191080681735 400.00000291824347 394.06129556030567C407.5000031471253 393.80348305243785 410.5000032386781 403.8891083602267 418.00000346755996 404.45629587753587C425.5000036964418 405.0234833948451 428.5000037879945 396.3197331292277 436.00000401687635 396.78379564338974C443.5000042457582 397.24785815755183 446.50000433731094 406.06504592663106 454.0000045661928 406.6837959455138C461.50000479507463 407.30254596439653 464.5000048866274 399.4959832261592 472.0000051155092 399.753795734027C479.50000534439107 400.0116082418948 486.2500055503847 406.2197334313517 490.0000056648256 407.92129598327926 " transform="rotate(108, 400, 400)"></path><path d="M320.0000001525879 401.1011533933199C323.3333335876465 400.00115335975056 329.333333770752 395.17948654593835 336.0000006408692 395.8211532321871C342.6666675109864 396.4628199184359 345.3333342590332 404.7769868388308 352.0000011291504 404.1811534873141C358.6666679992676 403.58532013579736 361.3333347473145 392.7778198059786 368.00000161743174 392.9611531449068C374.6666684875489 393.14448648383507 377.33333523559577 404.6944868363131 384.00000210571295 405.0611535141695C390.66666897583013 405.427820192026 393.33333572387704 394.95031987227804 400.0000025939942 394.7211531986178C406.6666694641114 394.4919865249575 409.3333362121583 403.4569867985476 416.0000030822755 403.9611534806002C422.6666699523927 404.4653201626528 425.33333670043953 396.7286532598818 432.00000357055677 397.1411532724703C438.66667044067395 397.55365328505883 441.3333371887208 405.39115352424034 448.00000405883804 405.941153541025C454.6666709289552 406.4911535578097 457.3333376770021 399.55198667937645 464.0000045471193 399.7811533530367C470.66667141723656 400.010320026697 476.66667160034194 405.5286535284365 480.0000050354006 407.0411535745943 " transform="rotate(96, 400, 400)"></path><path d="M330.0000001335144 400.9635095767828C332.91666688919065 400.00100954740964 338.166667049408 395.7820510853239 344.00000056076055 396.3435094357916C349.8333340721131 396.90496778625925 352.1666674766541 404.1798638416048 358.0000009880066 403.6585096590277C363.8333344993592 403.1371554764505 366.1666679039002 393.68059268785913 372.00000141525277 393.8410093594213C377.8333349266053 394.00142603098357 380.1666683311463 404.10767633940185 386.0000018424988 404.4285096825262C391.8333353538514 404.7493430256506 394.1666687583924 395.58153024587114 400.000002269745 395.3810094064184C405.8333357810975 395.18048856696566 408.1666691856385 403.024863806357 414.00000269699103 403.46600965315304C419.8333362083436 403.90715549994906 422.1666696128846 397.13757196002445 428.00000312423714 397.49850947103937C433.8333366355897 397.85944698205435 436.1666700401307 404.71725969133814 442.00000355148325 405.19850970602477C447.8333370628358 405.67975972071133 450.16667046737683 399.60798870208225 456.0000039787294 399.808509541535C461.83333749008193 400.0090303809877 467.0833376502992 404.8375721950098 470.00000440597546 406.1610097353979 " transform="rotate(84, 400, 400)"></path><path d="M339.99999629974366 400.8258652834085C342.4999963760376 400.0008652582315 346.9999965133667 396.3846151478723 351.9999966659546 396.8658651625589C356.9999968185425 397.3471151772455 358.9999968795777 403.58274036754165 363.99999703216554 403.13586535390414C368.99999718475345 402.68899034026657 370.9999972457886 394.5833650929025 375.99999739837654 394.7208650970987C380.9999975509644 394.85836510129485 382.99999761199956 403.5208653656534 387.9999977645874 403.7958653740457C392.9999979171754 404.07086538243806 394.9999979782105 396.2127401426271 399.9999981307984 396.0408651373819C404.9999982833863 395.8689901321367 406.99999834442144 402.59274033732925 411.99999849700936 402.97086534886876C416.9999986495973 403.3489903604082 418.9999987106324 397.5464901833299 423.9999988632203 397.8558651927713C428.9999990158082 398.1652402022127 430.9999990768433 404.04336538159885 435.9999992294313 404.45586539418736C440.99999938201915 404.86836540677587 442.9999994430543 399.6639902479509 447.9999995956422 399.8358652531961C452.9999997482301 400.00774025844134 457.49999988555925 404.14649038474596 459.9999999618532 405.2808654193643 " transform="rotate(72, 400, 400)"></path><path d="M349.9999962806702 400.68822099003427C352.0833296775818 400.0007209690534 355.8333297920227 396.9871792104207 359.99999658584596 397.38822088932625C364.1666633796692 397.7892625682317 365.8333300971985 402.98561689347855 369.99999689102174 402.6132210487806C374.166663684845 402.2408252040826 375.8333304023743 395.48613749794595 379.99999719619757 395.60072083477604C384.16666399002077 395.7153041716062 385.8333307075501 402.93405439190497 389.99999750137334 403.16322106556527C394.1666642951966 403.3923877392255 395.83333101272586 396.84395003938306 399.9999978065491 396.7007208683454C404.16666460037237 396.55749169730774 405.83333131790164 402.16061686830153 409.99999811172495 402.4757210445844C414.16666490554815 402.7908252208673 415.83333162307747 397.9554084066354 419.9999984169007 398.2132209145032C424.166665210724 398.471033422371 425.83333192825324 403.3694710718595 429.9999987220765 403.71322108234995C434.16666551589975 404.05697109284034 435.833332233429 399.7199917938196 439.99999902725233 399.86322096485725C444.1666658210755 400.0064501358949 447.91666593551645 403.45540857448214 449.9999993324281 404.40072110333074 " transform="rotate(60, 400, 400)"></path><path d="M359.99999626159666 400.55057669665996C361.666662979126 400.0005766798753 364.66666307067874 397.58974327296914 367.99999650573733 397.9105766160936C371.3333299407959 398.23140995921796 372.66666331481935 402.3884934194154 375.99999674987794 402.09057674365704C379.33333018493653 401.7926600678987 380.66666355895995 396.3889099029893 383.9999969940186 396.4805765724534C387.3333304290772 396.57224324191753 388.6666638031006 402.34724341815655 391.9999972381592 402.53057675708476C395.3333306732178 402.71391009601297 396.6666640472413 397.47515993613905 399.9999974822998 397.3605765993089C403.33333091735847 397.24599326247875 404.6666642913819 401.7284933992738 407.9999977264405 401.9805767403001C411.3333311614991 402.2326600813264 412.6666645355225 398.36432662994093 415.99999797058115 398.57057663623516C419.3333314056397 398.7768266425294 420.66666477966317 402.69557676212014 423.99999821472176 402.9705767705125C427.33333164978035 403.2455767789048 428.6666650238038 399.7759933396882 431.99999845886236 399.8905766765184C435.333331893921 400.0051600133485 438.3333319854737 402.76432676421825 439.99999870300303 403.52057678729716 " transform="rotate(48, 400, 400)"></path><path d="M369.9999962425232 400.41293288012287C371.2499962806702 400.00043286753436 373.4999963493347 398.1923078123547 375.99999642562864 398.432932819698C378.4999965019226 398.67355782704135 379.4999965324402 401.7913704221894 381.99999660873414 401.56793291537065C384.4999966850281 401.3444954085519 385.49999671554565 397.29168278486986 387.99999679183964 397.3604327869679C390.49999686813356 397.42918278906603 391.49999689865115 401.7604329212453 393.9999969749451 401.89793292544147C396.49999705123906 402.03543292963764 397.49999708175665 398.10637030973214 399.9999971580506 398.02043280710956C402.4999972343445 397.9344953044869 403.4999972648621 401.2963704070832 405.999997341156 401.48543291285296C408.49999741745 401.67449541862266 409.49999744796753 398.77324533008357 411.9999975242615 398.9279328348042C414.4999976005555 399.0826203395249 415.49999763107303 402.021682929218 417.999997707367 402.22793293551223C420.49999778366094 402.4341829418065 421.4999978141785 399.831995362394 423.99999789047246 399.9179328650166C426.4999979667664 400.00387036763925 428.74999803543096 402.07324543079153 429.99999807357796 402.64043294810074 " transform="rotate(36, 400, 400)"></path><path d="M380.000000038147 400.27528858674856C380.8333333969116 400.0002885783562 382.333333442688 398.79487187490315 384.00000016021727 398.95528854646534C385.6666668777466 399.11570521802753 386.3333335647583 401.1942469481263 388.0000002822876 401.0452886102471C389.6666669998169 400.8963302723679 390.3333336868286 398.19445518991324 392.00000040435793 398.2402885246453C393.66666712188726 398.2861218593773 394.33333380889894 401.1736219474968 396.00000052642827 401.26528861696096C397.66666724395753 401.3569552864251 398.3333339309693 398.7375802064881 400.00000064849854 398.680288538073C401.66666736602787 398.622996869658 402.3333340530396 400.8642469380555 404.0000007705689 400.9902886085686C405.66666748809814 401.1163302790818 406.3333341751099 399.18216355338905 408.0000008926392 399.28528855653616C409.6666676101685 399.3884135596833 410.3333342971802 401.34778861947865 412.0000010147095 401.4852886236748C413.6666677322388 401.622788627871 414.3333344192505 399.88799690826266 416.0000011367798 399.94528857667774C417.66666785430914 400.0025802450928 419.1666679000855 401.3821636205277 420.00000125885015 401.76028863206716 " transform="rotate(24, 400, 400)"></path><path d="M390.00000001907347 400.13764429337425C390.4166666984558 400.00014428917814 391.166666721344 399.3974359374516 392.00000008010863 399.47764427323267C392.8333334388733 399.55785260901376 393.16666678237914 400.59712347406315 394.0000001411438 400.52264430512355C394.83333349990846 400.44816513618395 395.1666668434143 399.0972275949566 396.00000020217897 399.12014426232264C396.83333356094363 399.14306092968866 397.16666690444947 400.5868109737484 398.00000026321413 400.6326443084805C398.8333336219788 400.67847764321255 399.16666696548464 399.36879010324407 400.0000003242493 399.3401442690365C400.83333368301396 399.311498434829 401.1666670265198 400.4321234690277 402.00000038528447 400.49514430428434C402.83333374404907 400.5581651395409 403.16666708755497 399.5910817766945 404.00000044631963 399.6426442782681C404.83333380508424 399.69420677984164 405.16666714859014 400.67389430973935 406.00000050735474 400.7426443118374C406.8333338661194 400.8113943139355 407.16666720962525 399.94399845413136 408.0000005683899 399.97264428833887C408.83333392715457 400.00129012254644 409.58333395004274 400.6910818102639 410.0000006294251 400.8801443160336 " transform="rotate(12, 400, 400)"></path></g></svg>