<svg xmlns="http://www.w3.org/2000/svg" version="1.1" xmlns:xlink="http://www.w3.org/1999/xlink" xmlns:svgjs="http://svgjs.dev/svgjs" viewBox="0 0 800 800"><defs><linearGradient x1="50%" y1="0%" x2="50%" y2="100%" id="wwwhirl-grad"><stop stop-color="#064032ff" stop-opacity="1" offset="45%"></stop><stop stop-color="#267259ff" stop-opacity="1" offset="100%"></stop></linearGradient></defs><g stroke-width="2" stroke="url(#wwwhirl-grad)" fill="none" stroke-linecap="round"><path d="M37.00000251770027 446.6283138632504C50.75000289917 424.1470632395474 75.50000358581553 346.9683110983578 103.000004348755 338.71831086947594C130.50000511169446 330.4683106405941 141.5000054168703 406.2033127417294 169.00000617980973 407.02831276461757C196.5000069427492 407.85331278750573 207.50000724792503 339.3783108877865 235.00000801086446 342.6783109793392C262.500008773804 345.97831107089195 273.5000090789798 416.4745630266873 301.0000098419193 422.8683132040707C328.50001060485874 429.26206338145414 339.5000109100345 375.018311876556 367.000011672974 373.36831183077965C394.50001243591345 371.71831178500327 405.5000127410893 412.0608129042355 433.0000135040287 414.94831298434417C460.5000142669682 417.8358130644528 471.50001457214404 377.534561946365 499.0000153350834 387.2283122153012C526.5000160980228 396.9220624842373 537.5000164031987 468.07831445834324 565.0000171661382 461.4783142752377C592.5000179290777 454.87831409213226 603.5000182342535 360.9108114851681 631.000018997193 355.5483113363949C658.5000197601325 350.18581118762165 669.5000200653083 436.56331358401457 697.0000208282477 435.73831356112635C724.5000215911871 434.9133135382382 749.2500222778326 369.1195617129055 763.0000226593024 351.5883112265316 " transform="rotate(99, 400, 400)"></path><path d="M48.00000244140632 445.2153299158008C61.33333614464971 423.41532931099783 85.3333368104878 348.57532723469274 112.00000421697456 340.5753270127467C138.6666716234613 332.57532679080066 149.33333858605602 406.01532882826524 176.00000599254278 406.8153288504599C202.66667339902952 407.61532887265446 213.33334036162427 341.2153270305024 240.000007768111 344.4153271192808C266.6666751745978 347.6153272080592 277.3333421371925 415.975329104588 304.00000954367925 422.17532927659624C330.66667695016605 428.37532944860436 341.3333439127607 375.77532798930923 368.00001131924745 374.17532794492C394.66667872573424 372.57532790053085 405.33334568832896 411.6953289858469 432.00001309481576 414.49532906352806C458.66668050130244 417.29532914120915 469.3333474638972 378.2153280570028 496.0000148703839 387.61532831778936C522.6666822768707 397.0153285785759 533.3333492394653 466.01533049286047 560.0000166459522 459.6153303153036C586.666684052439 453.21533013774683 597.3333510150337 362.0953276097815 624.0000184215204 356.89532746551663C650.6666858280073 351.6953273212517 661.3333527906019 435.4553296450266 688.0000201970887 434.655329622832C714.6666876035754 433.8553296006374 738.6666882694134 370.05532783061784 752.0000219726569 353.05532735898254 " transform="rotate(96, 400, 400)"></path><path d="M59.00000236511238 443.8023497830484C71.9166693901294 422.68359919714555 95.16667003516005 350.182347185725 121.00000408519412 342.4323469707148C146.83333813522813 334.68234675570454 157.1666717552418 405.82734872949834 183.0000058052758 406.60234875099934C208.83333985530987 407.37734877250034 219.1666734753235 343.0523469879156 245.00000752535757 346.15234707391966C270.8333415753916 349.2523471599238 281.1666751954052 415.47609899718606 307.0000092454393 421.482349163819C332.83334329547336 427.4885993304519 343.16667691548696 376.5323479167597 369.00001096552097 374.9823478737577C394.83334501555504 373.43234783075565 405.1666786355687 411.3298488821556 431.0000126856027 414.04234895740916C456.8333467356368 416.7548490326627 467.16668035565044 378.89609798233784 493.0000144056845 388.0023482349749C518.8333484557185 397.10859848761186 529.1666820757321 463.95235034207496 555.0000161257661 457.7523501700668C580.8333501758003 451.5523499980586 591.1666837958139 363.27984754909227 617.000017845848 358.2423474093356C642.8333518958821 353.204847269579 653.1666855158957 434.347349520736 679.0000195659296 433.5723494992349C704.8333536159636 432.79734947773386 728.0833542609943 370.9910977630274 741.0000212860114 354.5223473061307 " transform="rotate(93, 400, 400)"></path><path d="M70.00000228881842 442.38937727969056C82.50000263560909 421.9518767126878 105.00000325983231 351.78937476615175 130.00000395341365 344.2893745580774C155.00000464699497 336.78937435000296 165.00000492442751 405.63937626012597 190.00000561800886 406.38937628093345C215.0000063115902 407.13937630174087 225.00000658902275 344.8893745747233 250.00000728260406 347.88937465795306C275.00000797618543 350.88937474118285 285.000008253618 414.9768765191786 310.0000089471993 420.78937668043625C335.00000964078066 426.601876841694 345.00000991821315 377.2893754736047 370.0000106117945 375.78937543198987C395.00001130537584 374.28937539037497 405.0000115828084 410.9643764078588 430.0000122763897 413.58937648068485C455.000012969971 416.2143765535109 465.0000132474036 379.57687553706745 490.00001394098496 388.38937578155486C515.0000146345662 397.20187602604227 525.0000149119987 461.889377820684 550.0000156055801 455.88937765422446C575.0000162991615 449.88937748776493 585.000016576594 364.4643751177975 610.0000172701755 359.58937498254915C635.0000179637568 354.7143748473008 645.0000182411893 433.2393770258398 670.0000189347705 432.48937700503234C695.0000196283519 431.7393769842249 717.5000202525752 371.92687532483154 730.0000205993658 355.9893748826734 " transform="rotate(90, 400, 400)"></path><path d="M81.00000221252448 440.9764009616354C93.08333588108879 421.2201504135328 114.83333648450457 353.3963985318813 139.0000038216332 346.14639833074267C163.1666711587618 338.8963981296041 172.83333809361326 405.45139997605634 197.0000054307419 406.17639999617023C221.16667276787052 406.9014000162841 230.833339702722 346.7263983468338 255.00000703985063 349.6263984272892C279.16667437697924 352.52639850774466 288.83334131183074 414.4776502264739 313.00000864895935 420.0964003823563C337.16667598608797 425.71515053823873 346.8333429209394 378.0463992157525 371.000010258068 376.59639917552477C395.16667759519663 375.14639913529703 404.8333445300481 410.5989001188648 429.00001186717674 413.13640018926327C453.16667920430535 415.67390025966176 462.8333461391569 380.25764927709974 487.00001347628546 388.7763995134376C511.1666808134141 397.2951497497754 520.8333477482655 459.8264014845958 545.0000150853941 454.0264013236849C569.1666824225229 448.226401162774 578.8333493573742 365.6488988718055 603.000016694503 360.93639874106543C627.1666840316316 356.2238986103253 636.8333509664831 432.1314007162464 661.0000183036116 431.4064006961325C685.1666856407402 430.6814006760186 706.9166862441559 372.8626490719384 719.0000199127203 357.4563986445189 " transform="rotate(87, 400, 400)"></path><path d="M92.00000213623053 439.56342082888307C103.6666691265685 420.48842029968046 124.66666970917683 355.0034184829135 148.00000368985275 348.00341828871075C171.33333767052864 341.003418094508 180.666671262799 405.26341987728944 204.00000524347493 405.96341989670975C227.33333922415085 406.66341991613 236.66667281642125 348.56341830424697 260.00000679709717 351.36341838192806C283.33334077777306 354.1634184596092 292.66667437004344 413.97842011907187 316.0000083507193 419.40342026957904C339.3333423313953 424.8284204200862 348.66667592366565 378.803419143203 372.00000990434154 377.4034191043624C395.3333438850174 376.0034190655218 404.6666774772878 410.2334200151734 428.00001145796375 412.68342008314437C451.3333454386397 415.1334201511154 460.6666790309101 380.93841920243483 484.000013011586 389.1634194306231C507.33334699226185 397.3884196588113 516.6666805845323 457.7634213338103 540.0000145652082 452.16342117844806C563.3333485458841 446.5634210230858 572.6666821381544 366.8334188111162 596.0000161188304 362.2834186848844C619.3333500995063 357.7334185586526 628.6666836917767 431.02342059195564 652.0000176724526 430.3234205725354C675.3333516531285 429.6234205531151 696.3333522357368 373.798419004348 708.0000192260748 358.9234185916671 " transform="rotate(84, 400, 400)"></path><path d="M103.00000205993659 438.1504445108279C114.25000237204819 419.75669400052544 134.5000029338491 356.61044224864304 157.00000355807228 349.8604420613761C179.50000418229547 343.1104418741091 188.5000044319848 405.0754435932198 211.00000505620795 405.75044361194654C233.50000568043117 406.4254436306732 242.50000593012047 350.4004420763574 265.0000065543437 353.1004421512642C287.5000071785669 355.800442226171 296.5000074282562 413.4791938263672 319.0000080524794 418.7104439714991C341.5000086767026 423.94169411663097 350.50000892639184 379.5604428853507 373.00000955061506 378.2104428478973C395.5000101748383 376.86044281044394 404.5000104245276 409.86794372617936 427.00001104875076 412.2304437917228C449.500011672974 414.5929438572662 458.5000119226633 381.6191929424671 481.00001254688647 389.5504431625058C503.50001317110963 397.4816933825445 512.5000134207988 455.70044499772206 535.0000140450221 450.30044484790847C557.5000146692455 444.9004446980949 566.5000149189347 368.0179425651242 589.0000155431579 363.6304424434007C611.5000161673811 359.24294232167716 620.5000164170704 429.9154442823623 643.0000170412935 429.24044426363554C665.5000176655168 428.56544424490886 685.7500182273176 374.7341927514548 697.0000185394292 360.3904423535125 " transform="rotate(81, 400, 400)"></path><path d="M114.00000198364263 436.73746056337825C124.83333561752788 419.0249600719759 144.33333615852135 358.21745838497804 166.0000034262918 351.71745820464685C187.6666706940623 345.2174580243157 196.3333376011705 404.8874596797557 218.000004868941 405.5374596977888C239.6666721367115 406.1874597158219 248.3333390438197 352.23745821907335 270.0000063115902 354.83745829120585C291.6666735793607 357.4374583633383 300.33334048646896 412.97995990426796 322.0000077542394 418.0174600440246C343.6666750220099 423.05496018378125 352.3333419291181 380.3174589981039 374.0000091968886 379.01745896203767C395.6666764646591 377.71745892597147 404.3333433717673 409.5024598077908 426.0000106395378 411.7774598709067C447.66667790730827 414.0524599340226 456.3333448144165 382.29995905310494 478.00001208218697 389.937459264994C499.66667934995746 397.5749594768831 508.33334625706556 453.6374610322393 530.0000135248362 448.43746088797434C551.6666807926067 443.23746074370945 560.3333476997147 369.2024586897377 582.0000149674854 364.97745857252244C603.6666822352558 360.7524584553072 612.3333491423641 428.80746034337426 634.0000164101345 428.15746032534116C655.666683677905 427.50746030730807 675.1666842188985 375.66995886916715 686.0000178527837 361.85745848596343 " transform="rotate(78, 400, 400)"></path><path d="M125.00000190734869 435.3244880600204C135.41666886300757 418.29323758751815 154.1666693831936 359.8244859654048 175.00000329451137 353.57448579200945C195.83333720582914 347.3244856186141 204.16667077035626 404.6994872103833 225.00000468167406 405.32448722772284C245.83333859299182 405.94948724506236 254.16667215751897 354.07448580588107 275.00000606883674 356.57448587523925C295.8333399801545 359.07448594459737 304.16667354468166 412.4807374262605 325.0000074559994 417.3244875606419C345.8333413673172 422.16823769502327 354.16667493184434 381.0744865549489 375.00000884316205 379.8244865202699C395.8333427544799 378.5744864855908 404.166676319007 409.136987333494 425.0000102303248 411.32448739418237C445.83334414164256 413.51198745487073 454.1666777061697 382.9807366078345 475.0000116174875 390.32448681157405C495.83334552880524 397.66823701531354 504.1666790933323 451.5744885108483 525.0000130046501 446.574488372132C545.8333469159679 441.57448823341576 554.166680480495 370.3869862584429 575.0000143918128 366.32448614573593C595.8333483031306 362.26198603302896 604.1666818676579 427.69948784847816 625.0000157789755 427.07448783113864C645.8333496902933 426.44948781379907 664.5833502104794 376.60573643097126 675.0000171661382 363.3244860625062 " transform="rotate(75, 400, 400)"></path><path d="M136.00000183105476 433.91150029787354C146.00000210848728 417.56149984427134 164.00000260786584 361.43149828704253 184.00000316273093 355.431498120583C204.00000371759597 349.4314979541235 212.000003939542 404.5114994822219 232.00000449440708 405.11149949886783C252.00000504927215 405.71149951551376 260.0000052712182 355.9114981338997 280.0000058260833 358.3114982004836C300.0000063809483 360.7114982670674 308.00000660289436 411.981499689464 328.00000715775946 416.6314998184701C348.00000771262455 421.2814999474762 356.00000793457053 381.83149885300486 376.0000084894356 380.631498819713C396.00000904430067 379.43149878642106 404.0000092662467 408.7714996004081 424.0000098211118 410.871499658669C444.0000103759769 412.97149971692977 452.0000105979229 383.66149890377505 472.000011152788 390.71149909936497C492.000011707653 397.7614992949549 500.00001192959905 449.51150073066833 520.0000124844642 444.7115005975007C540.0000130393292 439.911500464333 548.0000132612753 371.5714985683591 568.0000138161404 367.6714984601604C588.0000143710055 363.7714983519617 596.0000145929514 426.59150009479293 616.0000151478165 425.99150007814694C636.0000157026815 425.391500061501 654.00001620206 377.5414987339863 664.0000164794926 364.79149838025984 " transform="rotate(72, 400, 400)"></path><path d="M146.9999864959717 432.49852016512114C156.5833200951779 416.82976973041906 173.83332057374906 363.03851823807474 192.9999877721614 357.288518078551C212.16665497057375 351.53851791902736 219.8333218499387 404.323519383455 238.99998904835104 404.89851939940735C258.1666562467634 405.4735194153597 265.8333231261284 357.7485180913129 284.9999903245407 360.04851815512245C304.1666575229531 362.34851821893193 311.83332440231806 411.482269582062 330.9999916007304 415.9385197056929C350.1666587991428 420.39476982932376 357.83332567850766 382.5885187804554 376.99999287692003 381.4385187485506C396.1666600753324 380.28851871664585 403.8333269546974 408.4060194967168 422.99999415310975 410.4185195525501C442.1666613515221 412.4310196083834 449.83332823088705 384.3422688291101 468.9999954292994 391.0985190165504C488.16666262771173 397.8547692039908 495.83332950707666 447.4485205798828 514.9999967054891 442.8485204522638C534.1666639039015 438.24852032464486 541.8333307832664 372.7560185076698 560.9999979816788 369.01851840397944C580.1666651800912 365.281018300289 587.8333320594561 425.48351997050224 606.9999992578685 424.9085199545499C626.1666664562807 424.3335199385975 643.4166669348518 378.4772686663959 653.000000534058 366.258518327408 " transform="rotate(69, 400, 400)"></path><path d="M157.99998641967778 431.0855400323688C167.1666533406576 416.0980396165668 183.6666537984213 364.645538189107 201.99998764038094 359.1455380365191C220.33332148234058 353.6455378839312 227.66665501912445 404.1355392846881 245.9999888610841 404.68553929994687C264.33332270304373 405.23553931520564 271.6666562398276 359.5855380487261 289.99999008178725 361.7855381097613C308.3333239237469 363.9855381707965 315.6666574605308 410.98303947466 333.99999130249046 415.24553959291563C352.3333251444501 419.50803971117125 359.6666586812339 383.34553870790586 377.99999252319355 382.24553867738825C396.3333263651532 381.1455386468707 403.6666599019371 408.0405393930255 421.99999374389677 409.96553944643125C440.3333275858564 411.890539499837 447.6666611226403 385.02303875444517 465.9999949645999 391.48553893373594C484.3333288065595 397.9480391130267 491.6666623433434 445.3855404290973 509.9999961853031 440.985540307027C528.3333300272627 436.5855401849567 535.6666635640465 373.94053844698055 553.9999974060063 370.3655383477984C572.3333312479659 366.79053824861626 579.6666647847499 424.37553984621155 597.9999986267094 423.8255398309527C616.3333324686689 423.27553981569395 632.8333329264326 379.4130385988055 641.9999998474125 367.72553827455624 " transform="rotate(66, 400, 400)"></path><path d="M168.99998634338385 429.6725675290109C177.7499865861373 415.366317132109 193.49998702309355 366.25256576953376 210.9999875086005 361.0025656238817C228.4999879941074 355.7525654782296 235.49998818831023 403.9475668153157 252.99998867381714 404.4725668298809C270.49998915932406 404.99756684444617 277.49998935352687 361.42256563553383 294.9999898390338 363.5225656937947C312.4999903245407 365.62256575205555 319.4999905187435 410.48381699665254 336.99999100425043 414.55256710953296C354.49999148975735 418.6213172224133 361.49999168396016 384.10256626475086 378.9999921694671 383.0525662356204C396.49999265497405 382.00256620649003 403.4999928491768 407.6750669187287 420.9999933346837 409.51256696970694C438.4999938201907 411.3500670206852 445.4999940143935 385.7038163091747 462.9999944999004 391.8725664803159C480.4999949854073 398.0413166514571 487.4999951796101 443.32256790770634 504.99999566511707 439.1225677911847C522.4999961506239 434.922567674663 529.4999963448267 375.1250660156858 546.9999968303338 371.71256592101196C564.4999973158407 368.3000658263381 571.4999975100434 423.2675673513154 588.9999979955503 422.7425673367502C606.4999984810572 422.21756732218495 622.2499989180135 380.3488161606096 630.999999160767 369.19256585109895 " transform="rotate(63, 400, 400)"></path><path d="M179.9999862670899 428.259579766864C188.33331983161702 414.63457938886216 203.3333202477658 367.8595780911715 219.99998737682003 362.8595779524552C236.66665450587425 357.85957781373895 243.33332135749595 403.7595790871543 259.9999884865502 404.2595791010259C276.6666556156044 404.7595791148975 283.33332246722614 363.25957796355254 299.99998959628033 365.25957801903905C316.6666567253345 367.2595780745255 323.3333235769563 409.98457925985605 339.9999907060105 413.85957936736116C356.6666578350647 417.7345794748663 363.3333246866864 384.8595785628068 379.9999918157406 383.8595785350635C396.6666589447948 382.8595785073203 403.33332579641655 407.30957918564286 419.9999929254708 409.0595792341935C436.666660054525 410.8095792827442 443.3333269061467 386.3845786051153 459.9999940352009 392.25957876810685C476.6666611642551 398.1345789310985 483.33332801587676 441.2595801275263 499.99999514493106 437.2595800165533C516.6666622739854 433.25957990558027 523.333329125607 376.309578325602 539.9999962546613 373.0595782354364C556.6666633837156 369.80957814527085 563.3333302353371 422.15957959763017 579.9999973643913 421.6595795837585C596.6666644934455 421.1595795698869 611.6666649095944 381.28457846362465 619.9999984741214 370.6595781688526 " transform="rotate(60, 400, 400)"></path><path d="M190.99998619079594 426.8466034488089C198.9166530770967 413.90285308970715 213.16665347243807 369.466601856901 228.99998724503956 364.71660172512054C244.83332101764108 359.9666015933401 251.1666545266817 403.57160280308466 266.99998829928325 404.0466028162627C282.8333220718847 404.5216028294408 289.16665558092535 365.096601735663 304.99998935352687 366.9966017883752C320.83332312612833 368.8966018410873 327.166656635169 409.4853529671513 342.9999904077705 413.16660306928117C358.833324180372 416.84785317141103 365.1666576894126 385.61660230495454 380.9999914620141 384.6666022785985C396.8333252346156 383.71660225224235 403.1666587436563 406.94410289664876 418.99999251625775 408.60660294277193C434.83332628885927 410.2691029888951 441.1666597978999 387.0653523451476 456.99999357050143 392.6466024999896C472.8333273431029 398.2278526548316 479.1666608521435 439.19660379143806 494.99999462474506 435.3966036860137C510.8333283973466 431.5966035805893 517.1666619063872 377.49410207960995 532.9999956789886 374.4066019939527C548.8333294515903 371.31910190829535 555.1666629606309 421.05160328803674 570.9999967332324 420.5766032748587C586.8333305058338 420.1016032616806 601.0833309011753 382.2203522107315 608.9999977874759 372.12660193069803 " transform="rotate(57, 400, 400)"></path><path d="M201.999986114502 425.4336271307538C209.49998632257638 413.17112679055214 222.99998669711033 371.0736256226305 237.99998711325912 366.5736254977859C252.99998752940792 362.07362537294125 258.99998769586745 403.383626519015 273.99998811201624 403.8336265314995C288.9999885281651 404.2836265439839 294.99998869462456 366.93362550777346 309.9999891107734 368.7336255577113C324.9999895269222 370.5336256076491 330.99998969338174 408.9861266744466 345.99999010953053 412.4736267712012C360.9999905256793 415.96112686795584 366.9999906921388 386.3736260471023 381.99999110828765 385.4736260221334C396.99999152443644 384.5736259971644 402.99999169089597 406.5786266076547 417.99999210704476 408.15362665135035C432.99999252319355 409.728626695046 438.99999268965314 387.7461260851799 453.99999310580193 393.03362623187235C468.9999935219507 398.3211263785648 474.9999936884102 437.1336274553499 489.99999410455905 433.53362735547415C504.9999945207079 429.9336272555984 510.9999946871674 378.67862583361796 525.9999951033162 375.7536257524689C540.9999955194651 372.8286256713199 546.9999956859245 419.9436269784433 561.9999961020733 419.49362696595887C576.9999965182221 419.04362695347436 590.499996892756 383.15612595783836 597.9999971008303 373.5936256925435 " transform="rotate(54, 400, 400)"></path><path d="M212.99998603820805 424.0206469980014C220.08331956805608 412.43939667669986 232.8333199217826 372.6806455736628 246.99998698147868 368.43064545575396C261.16665404117475 364.1806453378451 266.8333208650532 403.1956464202481 280.9999879247493 403.62064643203905C295.16665498444536 404.0456464438299 300.83332180832383 368.77064546518665 314.99998886801995 370.4706455123502C329.166655927716 372.1706455595137 334.83332275159444 408.4868965670446 348.99998981129056 411.78064665842396C363.1666568709866 415.0743967498033 368.83332369486504 387.13064597455275 382.99999075456117 386.280645950971C397.16665781425723 385.43064592738926 402.8333246381357 406.2131465039634 416.9999916978318 407.7006465452315C431.1666587575279 409.1881465864996 436.8333255814063 388.42689601051495 450.99999264110244 393.42064614905786C465.1666597007985 398.4143962876007 470.8333265246769 435.0706473045644 484.99999358437304 431.6706472102373C499.16666064406917 428.2706471159102 504.8333274679476 379.86314577292865 518.9999945276437 377.1006456962879C533.1666615873398 374.3381456196472 538.8333284112182 418.8356468541526 552.9999954709143 418.41064684236176C567.1666625306103 417.9856468305709 579.9166628843368 384.09189589024794 586.9999964141849 375.0606456396917 " transform="rotate(51, 400, 400)"></path><path d="M223.9999859619141 422.6076649579004C230.6666528135358 411.70766465549895 242.66665314645485 374.28766361734637 255.99998684969822 370.28766350637335C269.3333205529416 366.28766339540033 274.66665403423895 403.0076644141326 287.99998773748234 403.40766442522994C301.3333214407257 403.80766443632723 306.6666549220231 370.6076635152512 319.99998862526644 372.2076635596404C333.33332232850984 373.8076636040296 338.6666558098072 407.987664552294 351.99998951305054 411.0876646382981C365.33332321629393 414.1876647243022 370.6666566975913 387.88766399465464 383.9999904008347 387.08766397246C397.3333241040781 386.2876639502654 402.66665758537545 405.84766449292346 415.99999128861884 407.24766453176403C429.3333249918621 408.64766457060455 434.66665847315954 389.1076640285014 447.9999921764029 393.8076641588947C461.3333258796463 398.50766428928796 466.6666593609436 433.00766524643024 479.99999306418704 429.8076651576518C493.33332676743044 426.6076650688734 498.6666602487278 381.04766380489076 511.99999395197113 378.4476637327583C525.3333276552146 375.84766366062587 530.666661136512 417.7276648225133 543.9999948397553 417.327664811416C557.3333285429986 416.9276648003187 569.3333288759177 385.0276639153089 575.9999957275394 376.52766367949124 " transform="rotate(48, 400, 400)"></path><path d="M234.99998588562016 421.19468863984525C241.2499860590155 410.9759383563439 252.49998637112708 375.8946873830759 264.99998671791775 372.1446872790387C277.4999870647084 368.3946871750015 282.49998720342467 402.819688130063 294.99998755021534 403.1946881404667C307.499987897006 403.56968815087043 312.4999880357223 372.44468728736166 324.999988382513 373.94468732897656C337.49998872930365 375.4446873705914 342.49998886801995 407.4884382595893 354.9999892148106 410.3946883402181C367.4999895616013 413.300938420847 372.49998970031754 388.6446877368024 384.9999900471082 387.8946877159949C397.4999903938989 387.1446876951875 402.49999053261513 405.4821882039294 414.9999908794058 406.7946882403424C427.49999122619647 408.10718827675544 432.4999913649127 389.7884377685337 444.9999917117034 394.1946878907774C457.49999205849406 398.60093801302116 462.4999921972103 430.944688910342 474.999992544001 427.94468882711226C487.4999928907917 424.94468874388247 492.49999302950795 382.2321875588988 504.9999933762987 379.79468749127454C517.4999937230893 377.3571874236504 522.4999938618056 416.6196885129199 534.9999942085963 416.24468850251617C547.4999945553868 415.86968849211246 558.7499948674986 385.9634376624158 564.9999950408939 377.99468744133674 " transform="rotate(45, 400, 400)"></path><path d="M245.9999858093262 419.78171041444153C251.83331930449518 410.2442101498402 262.33331959579937 377.50170924145675 273.9999865861373 374.00170914435535C285.66665357647526 370.501709047254 290.33332037261044 402.63170993864475 301.9999873629484 402.9817099483549C313.6666543532864 403.331709958065 318.3333211494216 374.2817091521235 329.9999881397595 375.68170919096406C341.66665513009747 377.0817092298046 346.33332192623266 406.98921005953594 357.9999889165706 409.70171013478955C369.66665590690855 412.4142102100431 374.3333227030438 389.4017095716015 385.99998969338174 388.7017095521812C397.6666566837197 388.0017095327609 402.3333234798548 405.11671000758673 413.9999904701928 406.3417100415722C425.6666574605308 407.5667100755577 430.33332425666595 390.4692096012174 441.99999124700395 394.58170971531155C453.66665823734184 398.6942098294057 458.3333250334771 428.8817106669051 469.999992023815 426.08171058922403C481.66665901415297 423.2817105115429 486.33332581028816 383.4167094055581 497.99999280062616 381.1417093424422C509.6666597909641 378.8667092793263 514.3333265870992 415.5117102959778 525.9999935774372 415.1617102862677C537.6666605677751 414.81171027655756 548.1666608590793 386.899209502174 553.9999943542483 379.46170929583354 " transform="rotate(42, 400, 400)"></path><path d="M256.99998573303225 418.3687340963864C262.41665254997486 409.5124838506852 272.1666528204716 379.1087330071863 282.9999864543569 375.8587329170207C293.8333200882421 372.60873282685515 298.1666535417962 402.4437336545751 308.99998717568144 402.76873366359166C319.83332080956666 403.0937336726082 324.1666542631208 376.11873292423394 334.999987897006 377.4187329603002C345.8333215308913 378.7187329963664 350.1666549844454 406.48998376683124 360.99998861833063 409.00873383670955C371.8333222522159 411.52748390658786 376.16665570577 390.1587333137492 386.99998933965526 389.5087332957161C397.8333229735405 388.858733277683 402.1666564270946 404.75123371859263 412.9999900609798 405.8887337501506C423.83332369486504 407.0262337817086 428.1666571484192 391.1499833412497 438.9999907823044 394.96873344719427C449.83332441618967 398.7874835531388 454.16665786974374 426.81873433081694 464.999991503629 424.21873425868444C475.8333251375143 421.618734186552 480.1666585910683 384.6012331595661 490.99999222495364 382.4887331009585C501.83332585883886 380.37623304235086 506.166659312393 414.4037339863844 516.9999929462782 414.07873397736785C527.8333265801634 413.7537339683513 537.5833268506601 387.83498324928087 542.9999936676028 380.928733057679 " transform="rotate(39, 400, 400)"></path><path d="M267.9999856567383 416.95575396363404C272.99998579545456 408.78075373683293 281.9999860451438 380.7157529582185 291.99998632257643 377.71575287498877C301.9999866000089 374.715752791759 305.99998671098194 402.2557535558082 315.9999869884145 402.5557535641312C325.99998726584704 402.85575357245415 329.99998737682006 377.95575288164713 339.99998765425255 379.15575291493906C349.9999879316851 380.35575294823093 353.9999880426581 405.99075365942923 363.99998832009067 408.31575372393235C373.9999885975232 410.6407537884354 377.9999887084962 390.9157532411997 387.9999889859287 390.31575322455376C397.9999892633613 389.7157532079078 401.9999893743343 404.3857536149013 411.99998965176684 405.43575364403176C421.9999899291994 406.48575367316215 425.9999900401724 391.8307532665848 435.9999903176049 395.3557533643798C445.99999059503745 398.8807534621747 449.99999070601046 424.75575418003143 459.999990983443 422.3557541134476C469.99999126087556 419.9557540468638 473.9999913718486 385.7857530988768 483.9999916492811 383.83575304477745C493.9999919267137 381.88575299067816 497.99999203768664 413.2957538620937 507.9999923151192 412.99575385377074C517.9999925925517 412.69575384544777 526.999992842241 388.77075318169045 531.9999929809572 382.39575300482716 " transform="rotate(36, 400, 400)"></path><path d="M279.0000008392334 415.54277001618436C283.58333429972333 408.0490198082834 291.8333345286052 382.3227690945535 301.000001449585 379.5727690182596C310.1666683705648 376.8227689419656 313.8333351389567 402.06776964234405 323.0000020599366 402.34276964997343C332.16666898091637 402.6177696576028 335.83333574930833 379.79276902436305 345.00000267028815 380.89276905488066C354.166669591268 381.9927690853982 357.83333635965994 405.49151973733 367.00000328063976 407.6227697964578C376.1666702016196 409.7540198555856 379.8333369700115 391.6727693539529 389.0000038909913 391.1227693386941C398.16667081197113 390.57276932343535 401.8333375803631 404.02026969651274 411.0000045013429 404.9827697232156C420.16667142232274 405.9452697499185 423.8333381907147 392.51151937722256 433.00000511169446 395.74276946686797C442.1666720326743 398.9740195565133 445.83333880106625 422.69277021454866 455.00000572204607 420.4927701535135C464.1666726430259 418.29277009247835 467.8333394114178 386.9702692234903 477.0000063323977 385.1827691738992C486.1666732533775 383.39526912430813 489.83334002176946 412.18776992310575 499.0000069427492 411.91276991547636C508.166673863729 411.637769907847 516.4166740926108 389.70651929940277 521.0000075531008 383.8627691372781 " transform="rotate(33, 400, 400)"></path><path d="M290.00000076293946 414.129789883432C294.16666754520304 407.3172896944311 301.66666775327747 383.9297890455857 310.00000131780456 381.4297889762276C318.33333488233166 378.9297889068695 321.6666683081425 401.87978954357715 330.0000018726696 402.12978955051295C338.33333543719675 402.37978955744876 341.6666688630076 381.62978898177624 350.0000024275347 382.6297890095195C358.3333359920618 383.62978903726275 361.66666941787264 404.992289629928 370.0000029823998 406.92978968368055C378.3333365469269 408.8672897374331 381.66666997273774 392.4297892814034 390.00000353726483 391.92978926753176C398.3333371017919 391.42978925366015 401.66667052760283 403.65478959282143 410.0000040921299 404.52978961709675C418.333337656657 405.40478964137213 421.6666710824679 393.19228930255764 430.00000464699497 396.1297893840534C438.3333382115221 399.06728946554927 441.6666716373329 420.62979006376315 450.00000520186006 418.62979000827664C458.3333387663872 416.62978995279013 461.666672192198 388.15478916280097 470.00000575672516 386.5297891177182C478.3333393212523 384.9047890726354 481.6666727470631 411.07978979881506 490.0000063115902 410.82978979187925C498.3333398761173 410.57978978494344 505.8333400841917 390.64228923181236 510.00000686645524 385.3297890844263 " transform="rotate(30, 400, 400)"></path><path d="M301.00000068664554 412.71681356537687C304.75000079068275 406.58556339527604 311.5000009779497 385.53681281131526 319.00000118602406 383.28681274889294C326.5000013940985 381.0368126864706 329.5000014773283 401.6918132595075 337.00000168540265 401.91681326574974C344.5000018934771 402.14181327199196 347.5000019767068 383.4668127538867 355.00000218478124 384.36681277885566C362.50000239285566 385.26681280382456 365.5000024760854 404.4930633372233 373.00000268415977 406.2368133856006C380.5000028922342 407.9805634339779 383.50000297546393 393.18681302355117 391.00000318353835 392.73681301106666C398.5000033916127 392.2868129985822 401.5000034748425 403.2893133038274 409.00000368291694 404.0768133256752C416.5000038909913 404.86431334752297 419.5000039742211 393.87306304258993 427.00000418229547 396.5168131159362C434.5000043903699 399.1605631892824 437.50000447359963 418.5668137276749 445.00000468167406 416.76681367773705C452.5000048897485 414.9668136277992 455.5000049729782 389.339312916809 463.00000518105264 387.87681287623445C470.50000538912707 386.41431283566 473.5000054723568 409.97181348922163 481.0000056804312 409.7468134829794C488.5000058885056 409.5218134767372 495.25000607577255 391.5780629789192 499.0000061798097 386.79681284627173 " transform="rotate(27, 400, 400)"></path><path d="M312.00000061035155 411.30383533997315C315.33333403616246 405.8538351887724 321.3333342026219 387.14383466969616 328.0000010542436 385.14383461420965C334.6666679058653 383.14383455872314 337.333334646514 401.50383506808924 344.0000014981357 401.7038350736379C350.6666683497574 401.9038350791866 353.3333350904061 385.3038346186486 360.0000019420278 386.10383464084316C366.6666687936495 386.90383466303774 369.33333553429816 403.99383513717 376.0000023859198 405.543835180172C382.6666692375415 407.09383522317404 385.3333359781902 393.9438348583503 392.0000028298119 393.543834847253C398.6666696814336 393.14383483615563 401.33333642208225 402.9238351074847 408.00000327370395 403.62383512690496C414.6666701253256 404.3238351463252 417.3333368659743 394.55383487527365 424.000003717596 396.9038349404703C430.6666705692177 399.25383500566693 433.33333730986635 416.50383548423804 440.00000416148805 414.9038354398489C446.66667101310975 413.30383539545966 449.3333377537584 390.52383476346836 456.0000046053801 389.2238347274021C462.6666714570018 387.92383469133586 465.3333381976505 408.86383527227963 472.0000050492722 408.663835266731C478.66667190089385 408.4638352611823 484.6666720673534 392.5138348186774 488.0000054931642 388.2638347007686 " transform="rotate(24, 400, 400)"></path><path d="M323.0000005340576 409.8908542535464C325.9166672816421 405.1221041212458 331.1666674272942 388.75085366705406 337.0000009224632 387.00085361850336C342.83333441763216 385.25085356995265 345.1666678156997 401.31585401564803 351.0000013108687 401.4908540205031C356.8333348060377 401.66585402535816 359.16666820410535 387.14085362238745 365.0000016992743 387.8408536418077C370.8333351944433 388.54085366122797 373.16666859251086 403.49460407609365 379.00000208767983 404.85085411372046C384.8333355828488 406.2071041513472 387.1666689809164 394.7008538321264 393.0000024760854 394.3508538224163C398.83333597125437 394.00085381270617 401.16666936932194 402.558354050119 407.00000286449097 403.1708540671118C412.83333635965994 403.78335408410453 415.1666697577275 395.23460384693436 421.0000032528965 397.29085390398143C426.83333674806545 399.3471039610285 429.1666701461331 414.4408543797783 435.00000364130204 413.0408543409377C440.833337136471 411.6408543020971 443.16667053453864 391.70835374910473 449.0000040297076 390.5708537175468C454.8333375248766 389.43335368598883 457.16667092294415 407.7558541943146 463.0000044181131 407.5808541894595C468.8333379132821 407.40585418460444 474.0833380589342 393.4496037974127 477.0000048065187 389.73085369424246 " transform="rotate(21, 400, 400)"></path><path d="M334.0000004577637 408.4778760281427C336.5000005271218 404.39037591474215 341.00000065196645 390.35787552543496 346.00000079068275 388.85787548382007C351.000000929399 387.35787544220517 353.0000009848855 401.1278758242298 358.0000011236018 401.2778758283913C363.00000126231805 401.4278758325528 365.00000131780456 388.9778754871493 370.0000014565208 389.5778755037952C375.0000015952371 390.17787552044115 377.00000165072356 402.9953758760403 382.00000178943986 404.1578759082918C387.00000192815617 405.3203759405434 389.0000019836426 395.45787566692553 394.00000212235886 395.15787565860256C399.00000226107517 394.8578756502796 401.0000023165617 402.19287585377634 406.0000024552779 402.71787586834154C411.0000025939942 403.2428758829068 413.00000264948073 395.9153756796181 418.000002788197 397.6778757285156C423.0000029269132 399.44037577741307 425.0000029823998 412.3778761363414 430.00000312111604 411.17787610304947C435.0000032598323 409.9778760697576 437.00000331531885 392.8928755957641 442.0000034540351 391.9178755687144C447.00000359275134 390.94287554166476 449.00000364823785 406.64787597737256 454.00000378695415 406.4978759732111C459.0000039256704 406.3478759690496 463.50000405051503 394.3853756371709 466.00000411987315 391.19787554873926 " transform="rotate(18, 400, 400)"></path><path d="M344.99999656677244 407.0648930343674C347.08332995790425 403.6586429398669 350.83333006194147 391.9648926154442 354.99999684420504 390.7148925807652C359.16666362646856 389.4648925460861 360.833330339374 400.9398928644399 364.99999712163753 401.0648928679078C369.1666639039011 401.1898928713758 370.8333306168065 390.8148925835395 374.9999973990701 391.31489259741113C379.16666418133366 391.81489261128274 380.83333089423905 402.49614290761536 384.99999767650263 403.4648929344917C389.16666445876615 404.4336429613679 390.8333311716716 396.21489273335305 394.9999979539351 395.96489272641725C399.1666647361987 395.71489271948144 400.83333144910415 401.8273928890621 404.9999982313677 402.26489290119974C409.16666501363125 402.7023929133374 410.8333317265367 396.59614274393016 414.9999985088002 398.0648927846781C419.1666652910638 399.533642825426 420.8333320039692 410.31489312453294 424.99999878623277 409.31489309678966C429.16666556849634 408.31489306904643 430.83333228140174 394.07739267405185 434.9999990636653 393.2648926515105C439.1666658459289 392.45239262896905 440.8333325588343 405.5398929920589 444.9999993410978 405.414892988591C449.1666661233614 405.28989298512306 452.9166662273986 395.32114270855755 454.99999961853035 392.6648926348645 " transform="rotate(15, 400, 400)"></path><path d="M355.9999964904785 405.65191671631226C357.66666320338396 402.9269166407119 360.6666632866137 393.57191638117376 363.99999671242455 392.5719163534305C367.3333301382354 391.57191632568725 368.66666350855974 400.75191658037033 371.9999969343706 400.85191658314466C375.33333036018144 400.951916585919 376.6666637305058 392.65191635565 379.9999971563166 393.05191636674726C383.3333305821275 393.45191637784455 384.6666639524518 401.9969166149107 387.9999973782626 402.7719166364117C391.3333308040735 403.5469166579127 392.66666417439785 396.9719164755008 395.99999760020864 396.77191646995215C399.33333102601955 396.5719164644035 400.6666643963439 401.46191660006804 403.9999978221547 401.81191660977817C407.33333124796553 402.1619166194883 408.6666646182899 397.2769164839625 411.9999980441007 398.4519165165608C415.33333146991157 399.62691654915915 416.6666648402359 408.2519167884447 419.99999826604676 407.4519167662501C423.3333316918576 406.6519167440555 424.66666506218195 395.26191642805986 427.9999984879928 394.61191641002677C431.33333191380365 393.9619163919936 432.666665284128 404.4319166824655 435.99999870993884 404.3319166796912C439.33333213574963 404.23191667691685 442.3333322189794 396.2569164556644 443.9999989318849 394.13191639671 " transform="rotate(12, 400, 400)"></path><path d="M366.9999964141846 404.2389384909085C368.2499964488636 402.19518843420826 370.499996511286 395.1789382395546 372.9999965806441 394.4289382187472C375.49999665000223 393.6789381979398 376.49999667774546 400.56393838895207 378.99999674710364 400.6389383910328C381.49999681646176 400.71393839311355 382.49999684420504 394.4889382204118 384.9999969135631 394.78893822873476C387.4999969829213 395.08893823705773 388.4999970106645 401.4976884148573 390.9999970800227 402.0789384309831C393.4999971493808 402.66018844710885 394.49999717712404 397.7289383102999 396.99999724648217 397.5789383061384C399.49999731584035 397.4289383019769 400.4999973435836 401.0964384037253 402.9999974129417 401.35893841100795C405.4999974822998 401.62143841829055 406.4999975100431 397.9576883166462 408.9999975794012 398.83893834109494C411.49999764875935 399.72018836554366 412.49999767650263 406.1889385450079 414.99999774586075 405.5889385283619C417.4999978152189 404.98893851171596 418.49999784296216 396.4464382747192 420.9999979123203 395.95893826119436C423.4999979816784 395.47143824766954 424.4999980094217 403.32393846552344 426.9999980787798 403.2489384634427C429.49999814813793 403.17393846136196 431.74999821056025 397.1926882954226 432.99999824523934 395.5989382512068 " transform="rotate(9, 400, 400)"></path><path d="M378.0000001525879 402.82595835815613C378.8333335090406 401.4634583203559 380.3333335506555 396.7859581905869 382.0000002635609 396.28595817671527C383.66666697646633 395.7859581628436 384.3333336616285 400.37595829018517 386.0000003745339 400.42595829157233C387.66666708743935 400.4759582929595 388.3333337726015 396.325958177825 390.0000004855069 396.52595818337363C391.66666719841237 396.7259581889223 392.33333388357454 400.99845830745534 394.00000059647994 401.38595831820584C395.6666673093854 401.77345832895634 396.33333399454756 398.4859582377504 398.00000070745295 398.3859582349761C399.6666674203584 398.2859582322018 400.3333341055206 400.730958300034 402.000000818426 400.90595830488905C403.6666675313314 401.0809583097441 404.33333421649354 398.63845824198125 406.000000929399 399.2259582582804C407.66666764230445 399.8134582745796 408.33333432746656 404.1259583942224 410.000001040372 403.72595838312503C411.66666775327747 403.32595837202774 412.3333344384396 397.63095821402993 414.00000115134503 397.3059582050134C415.6666678642505 396.98095819599683 416.3333345494126 402.21595834123275 418.00000126231805 402.1659583398456C419.66666797522345 402.1159583384584 421.16666801683834 398.1284582278322 422.00000137329107 397.06595819835496 " transform="rotate(6, 400, 400)"></path><path d="M389.00000007629393 401.4129801327524C389.4166667545203 400.7317301138523 390.1666667753277 398.39298004896773 391.00000013178044 398.1429800420319C391.83333348823317 397.8929800350961 392.1666668308143 400.1879800987669 393.00000018726695 400.2129800994605C393.8333335437197 400.23798010015406 394.16666688630073 398.1629800425868 395.00000024275346 398.26298004536113C395.8333335992062 398.36298004813546 396.1666669417873 400.499230107402 397.00000029823997 400.69298011277726C397.8333336546927 400.8867301181525 398.16666699727375 399.2429800725495 399.0000003537265 399.19298007116237C399.8333337101792 399.1429800697752 400.16666705276026 400.3654801036913 401.000000409213 400.45298010611884C401.8333337656657 400.5404801085464 402.16666710824677 399.3192300746649 403.0000004646995 399.61298008281454C403.8333338211522 399.9067300909641 404.1666671637333 402.0629801507855 405.000000520186 401.86298014523686C405.83333387663873 401.6629801396882 406.1666672192198 398.8154800606893 407.0000005756725 398.652980056181C407.83333393212524 398.4904800516727 408.1666672747063 401.1079801242907 409.000000631159 401.0829801235971C409.8333339876117 401.05798012290353 410.5833340084192 399.0642300675904 411.00000068664554 398.5329800528518 " transform="rotate(3, 400, 400)"></path></g></svg>